<?xml version="1.0" encoding="utf-8"?>
<!-- Generator: Adobe Illustrator 26.0.1, SVG Export Plug-In . SVG Version: 6.00 Build 0)  -->
<svg version="1.1" xmlns="http://www.w3.org/2000/svg" xmlns:xlink="http://www.w3.org/1999/xlink" x="0px" y="0px"
	 viewBox="0 0 500 500" style="enable-background:new 0 0 500 500;" xml:space="preserve">
<style type="text/css">
	.st0{fill:#F9CAE4;}
	.st1{fill:#A80C45;}
	.st2{fill:#EA348F;}
	.st3{fill:#FEC761;}
	.st4{fill:#FFFFFF;}
	.st5{fill:#1D262D;}
	.st6{fill:#FFB9B0;}
	.st7{fill:#363672;}
	.st8{fill:#29296A;}
	.st9{clip-path:url(#XMLID_00000181059024561532159510000010739320195786875295_);fill:#AB3773;}
	.st10{fill:#555C61;}
	.st11{fill:#AB3773;}
	.st12{fill:#C4C7C8;}
	.st13{fill:#B0394D;}
	.st14{fill:#A5A8AB;}
	.st15{opacity:0.5;fill:#BF7D75;}
	.st16{fill:#FD516E;}
	.st17{fill:#FEA5EF;}
	.st18{fill:#3D444A;}
	.st19{fill:#E96DAD;}
	.st20{fill:#FED0F7;}
	.st21{fill:#3E3E79;}
	.st22{fill:#7980F5;}
	.st23{fill:#E44999;}
	.st24{fill:#21CCE0;}
</style>
<g id="OBJECTS">
	<g>
		<path class="st0" d="M464.15,376.97c0,11.72-95.06,21.23-212.33,21.23s-212.33-9.5-212.33-21.23c0-11.72,95.06-21.23,212.33-21.23
			S464.15,365.24,464.15,376.97z"/>
		<g>
			<g>
				<g>
					<g>
						<polygon class="st1" points="409.65,367.07 358.54,319.43 349.82,319.43 393.9,369.53 401.98,369.53 						"/>
					</g>
					<path class="st1" d="M396.55,306.74c0-4.86-0.72-9.58-2.15-14.15c-1.43-4.57-0.79-9.93-3.65-13.44
						c-2.86-3.5-5.39-6.74-9.5-8.88c-4.11-2.14-11.89-4.06-17.25-4.06c-4.14,0-8.58,3.22-11.9,4.42c2-0.35,4.11-0.53,6.35-0.53
						c5.36,0,10.1,1.07,14.21,3.2c4.11,2.13,7.6,4.95,10.46,8.45c2.86,3.5,5.01,7.53,6.44,12.1c1.43,4.57,2.15,9.28,2.15,14.15
						c0,3.92-0.48,7.77-1.43,11.57c-0.56,2.21-1.29,4.33-2.17,6.38l2.73,3.02c1.9-3.32,3.33-6.88,4.29-10.68
						C396.07,314.51,396.55,310.65,396.55,306.74z"/>
					<path class="st1" d="M313.34,307.76c0-33.46,26.25-60.8,59.38-62.79c-4.34-0.94-8.85-1.45-13.47-1.45
						c-34.92,0-63.24,28.17-63.24,62.92c0,34.75,28.31,62.92,63.24,62.92c1.3,0,2.58-0.05,3.86-0.13c-6.48-1.4-12.59-3.79-18.16-7
						C326.05,351.36,313.34,331.04,313.34,307.76z"/>
				</g>
				<path class="st2" d="M393.59,361.48c-4.44,2.45-9.2,4.38-14.28,5.78c-5.08,1.4-10.42,2.1-16.03,2.1
					c-9.23,0-17.64-1.78-25.23-5.34c-7.59-3.56-14.08-8.29-19.45-14.19c-5.37-5.9-9.55-12.64-12.53-20.23
					c-2.98-7.59-4.47-15.42-4.47-23.48c0-8.17,1.55-16.06,4.64-23.65c3.09-7.59,7.41-14.3,12.96-20.15
					c5.55-5.84,12.11-10.48,19.71-13.93c7.59-3.44,15.88-5.17,24.88-5.17c9.22,0,17.63,1.84,25.23,5.52
					c7.59,3.68,14.07,8.5,19.45,14.45c5.37,5.96,9.52,12.73,12.44,20.32c2.92,7.59,4.38,15.3,4.38,23.12c0,7.94-1.4,15.53-4.2,22.77
					c-2.8,7.24-6.77,13.72-11.91,19.44l18.98,20.73l-27.16,0.01L393.59,361.48z M363.46,343.79c4.67,0,8.76-0.76,12.26-2.28
					l-19.97-22.07h26.98l7.71,8.58c1.87-3.27,3.27-6.77,4.2-10.51c0.93-3.74,1.4-7.53,1.4-11.39c0-4.79-0.7-9.43-2.1-13.93
					c-1.4-4.5-3.5-8.47-6.31-11.91c-2.8-3.44-6.22-6.22-10.25-8.32c-4.03-2.1-8.67-3.15-13.93-3.15c-5.49,0-10.25,1.08-14.28,3.24
					c-4.03,2.16-7.42,5.02-10.16,8.58c-2.75,3.56-4.79,7.59-6.13,12.09c-1.34,4.5-2.01,9.08-2.01,13.75c0,4.79,0.7,9.43,2.1,13.93
					c1.4,4.5,3.47,8.47,6.22,11.91c2.74,3.45,6.16,6.22,10.25,8.32C353.53,342.74,358.21,343.79,363.46,343.79z"/>
			</g>
			<g>
				<path class="st2" d="M77.68,369.17V244.09h82.88v24.76h-54.68v26.31h45.05v22.87h-45.05v51.14H77.68z"/>
				<rect x="73.32" y="244.03" class="st1" width="6.5" height="125.14"/>
			</g>
			<g>
				<g>
					<polygon class="st1" points="251.7,369.15 266.2,369.15 220.16,247.59 217.31,247.94 214.63,254.9 					"/>
					<polygon class="st1" points="214.63,254.9 217.31,247.94 218.79,244.09 211.82,244.09 163.62,369.15 170.77,369.15 					"/>
				</g>
				<path class="st2" d="M216.29,244.09h25.45l45.64,125.12l-28.88,0.12l-10.58-30.51h-38l-10.36,30.38l-28.87-0.02L216.29,244.09z
					 M243.28,319.41l-14.27-43.16l-14.62,43.16H243.28z"/>
			</g>
		</g>
	</g>
	<g>
		<g>
			<path class="st3" d="M167.55,177.3c0.99,1.79,2.48,3.34,4.42,4.38c4.04,2.17,8.83,1.55,12.17-1.18c1.81,3.85,5.78,6.46,10.3,6.32
				c4.58-0.14,8.42-3.07,9.95-7.11c3.49,2.43,8.24,2.71,12.08,0.32c3.9-2.42,5.76-6.87,5.06-11.13c4.24,0.36,8.49-1.77,10.63-5.76
				c2.17-4.04,1.55-8.83-1.18-12.17c3.85-1.81,6.46-5.78,6.32-10.3c-0.14-4.59-3.07-8.42-7.11-9.95c2.43-3.49,2.71-8.24,0.32-12.08
				c-2.42-3.9-6.87-5.76-11.13-5.06c0.36-4.24-1.77-8.49-5.76-10.63c-4.04-2.17-8.83-1.55-12.17,1.18
				c-1.81-3.85-5.78-6.46-10.3-6.32c-4.58,0.14-8.42,3.07-9.95,7.11c-3.49-2.43-8.24-2.71-12.08-0.32
				c-3.9,2.42-5.76,6.87-5.06,11.14c-4.24-0.36-8.49,1.77-10.63,5.76c-2.17,4.04-1.55,8.83,1.18,12.17
				c-3.85,1.81-6.46,5.78-6.32,10.3c0.14,4.59,3.07,8.42,7.11,9.95c-2.43,3.49-2.71,8.24-0.32,12.08c1.44,2.33,4.65,4.8,7.08,5.57
				l-12.68,21.31L167.55,177.3z"/>
			<g>
				<path class="st4" d="M215.37,128.98c0,0.75-0.61,1.36-1.36,1.36H171.6c-0.75,0-1.36-0.61-1.36-1.36l0,0
					c0-0.75,0.61-1.36,1.36-1.36h42.41C214.76,127.62,215.37,128.22,215.37,128.98L215.37,128.98z"/>
				<path class="st4" d="M215.37,139.31c0,0.75-0.61,1.36-1.36,1.36H171.6c-0.75,0-1.36-0.61-1.36-1.36l0,0
					c0-0.75,0.61-1.36,1.36-1.36h42.41C214.76,137.95,215.37,138.56,215.37,139.31L215.37,139.31z"/>
				<path class="st4" d="M215.37,149.64c0,0.75-0.61,1.36-1.36,1.36H171.6c-0.75,0-1.36-0.61-1.36-1.36l0,0
					c0-0.75,0.61-1.36,1.36-1.36h42.41C214.76,148.28,215.37,148.89,215.37,149.64L215.37,149.64z"/>
				<path class="st4" d="M215.37,159.97c0,0.75-0.61,1.36-1.36,1.36H171.6c-0.75,0-1.36-0.61-1.36-1.36l0,0
					c0-0.75,0.61-1.36,1.36-1.36h42.41C214.76,158.61,215.37,159.22,215.37,159.97L215.37,159.97z"/>
			</g>
		</g>
		<g>
			<g>
				<path class="st5" d="M117.77,304.28c0.01-0.41,0.28-1.68,0.28-1.68l-5.69-3.08c0,0-0.99-0.06-1.49,0.19
					c-1.96,0.98-6.39,3.98-6.4,7.14c-0.02,3.95,3.66,4.42,5.25,5.51c2.21,1.53,4.32,6.72,6.27,8.53c2.12,1.98,7.55,6.21,10.6,5.31
					c1.6-0.47,1.15-1.87,1.15-1.87s-6.11-5.93-7.34-8.44C119.34,313.76,117.71,307.28,117.77,304.28z"/>
			</g>
			<g>
				<path class="st5" d="M150.32,285.76l-0.87-1.28l-5.85,1.3c0,0-0.69,1.41-0.89,1.89c-0.77,1.88-2.12,5.85-0.2,8.08
					c2.39,2.78,5.26,0.87,7.04,0.67c2.48-0.27,7.13,2.08,9.6,2.17c2.7,0.1,9.08-0.24,10.68-2.74c0.83-1.31-0.33-2.01-0.33-2.01
					s-7.9-0.44-10.3-1.45C157.16,291.53,150.32,285.76,150.32,285.76z"/>
			</g>
			<path class="st6" d="M121.57,296.52c-2.06,2.09-3.81,7.67-3.81,7.67s-2.06,0.02-4.21-1.4c-1.76-1.16-2.72-3.04-2.72-3.04
				l2.87-7.21l3.51-2.94C117.21,289.61,123,295.06,121.57,296.52z"/>
			<path class="st6" d="M154.41,278.49c-3.2,3.47-2.88,8.17-3,8.23c-3.39,1.68-7.85-0.86-7.85-0.86s1.05-1.85,0.67-3.63
				C143.67,279.58,156.1,276.66,154.41,278.49z"/>
			<path class="st7" d="M120.76,222.4c11.41,3.76,31.09,3.84,40.17,7.74c3.32,1.43,4.99,4.52,5.15,6.44
				c1,12.26-8.35,21.3-11.13,47.25l-11.78-1.13c0,0,1.7-22.07,2.18-24.71c0.67-3.62,4.58-14,4.58-14s-17.98,3.94-27.33,4.53
				c-0.44,0.03-1.72,0.7-2.07,0.97c-3.27,2.42-12.29,3.1-16.16,1.84c-5.89-1.91-8.79-5.03-8.79-5.03S112.51,219.69,120.76,222.4z"/>
			<path class="st8" d="M121.57,300.87c0,0-2.77-0.12-6.17-1.58c-2.19-0.94-4.32-4.14-4.32-4.14s6.86-12.61,8.76-17
				c0.59-1.38,1.36-4.3,1.99-5.66c1.27-2.75,6.34-10.31,6.34-10.31s-17.54-4.15-23.25-6.01c-4.26-1.39-12.91-4.17-16.65-6.63
				c-8.08-5.29-6.41-12.78-5.2-16.57c0.65-2.05,1.78-4.34,2.73-5.49c0.44-0.54,1.85-1.7,1.85-1.7l33.75,10.78
				c0,0,1.36,1.94,2.05,2.26c6.07,2.9,14.87,9.64,14.87,9.64s4.66,2.64,5.93,3.88c1.13,1.1,3.56,3.53,3.88,5.1
				c0.23,1.14-0.27,3.59-0.93,4.55c-3.36,4.89-11.57,16.27-11.57,16.27s-4.49,5.21-5.49,7.26c-0.29,0.59-0.43,1.93-0.69,2.53
				C128.82,289.54,121.57,300.87,121.57,300.87z"/>
			<path class="st6" d="M128.13,205.04c0,0-3.17,8.89-2.12,11.69c0.63,1.67,0.13,3.41,0.13,3.41l-8.46,1.25l-0.66-16.83
				L128.13,205.04z"/>
			<g>
				<defs>
					<path id="XMLID_1_" d="M94.56,177.93c-5.74-0.14-12.63,4.81-14.4,7.47c-3.39,5.1-6.37,16.41-6.37,16.41l14.25,6.7l-2.38,13.51
						c0,0-4.16,10.6-3.47,14.07c0.15,0.76,2.32-3.13,3.2-4.02c0.75-0.76,3.76-2.05,3.76-2.05l8.98-0.28l23.77-1.77
						c0,0-3.31-7.69-3.59-10.44c-0.12-1.2,0.5-3.59,0.61-4.8c0.08-0.88,0.01-2.71,0.04-3.62c0.02-0.68,0.14-2.05,0.5-2.66
						c0.35-0.6,1.82-1.73,1.82-1.73l7.39,1.05c0,0,1.19-11.36,0.28-16.63c-0.86-4.93-5.27-8.09-8.16-9
						C114.5,178.16,102.33,178.12,94.56,177.93z"/>
				</defs>
				<use xlink:href="#XMLID_1_"  style="overflow:visible;fill:#E44999;"/>
				<clipPath id="XMLID_00000013183794494179666880000018016581481737891200_">
					<use xlink:href="#XMLID_1_"  style="overflow:visible;"/>
				</clipPath>
				<path style="clip-path:url(#XMLID_00000013183794494179666880000018016581481737891200_);fill:#AB3773;" d="M121.26,204.74
					c0,0-2.59,0.89-3.07,1.61c-0.47,0.7-0.25,2.53-0.32,3.38c-0.11,1.3-1.05,3.78-1.19,5.07c-0.16,1.51,0.33,3.63,0.33,5.76
					c0,0.86,1.13,1.78,1.13,1.78l1.37-1.69v-8.31L121.26,204.74z"/>
			</g>
			<path class="st6" d="M103.98,166.08c0,0-0.65,6.93-2.11,8.59c-1.75,1.98-8.13,3.32-8.13,3.32s3.24,12.02,15.41,12.27
				c9.3,0.19,11.62-10.06,11.62-10.06s-3.73-1.44-4.49-3.22c-0.62-1.44,0.21-5.89,0.21-5.89L103.98,166.08z"/>
			<g>
				<polygon class="st4" points="96.76,227.29 95.17,227.42 94.94,227.6 94.93,228.72 107.84,239.58 108.07,239.64 108.49,239.32 
					108.64,237.68 96.07,227.89 				"/>
				<path class="st10" d="M105.2,226.92c0,0-7.05,0.18-9.38,0.45c-0.64,0.07-0.58,0.21-0.58,0.21l13.5,10.72l-0.25,1.01l11.45-13.65
					L105.2,226.92z"/>
			</g>
			<path class="st11" d="M88.02,208.51l2.16-5.64c0,0-2.72,11.22-1.1,14.67c1.07,2.27,7.47,5.62,7.47,5.62l-14.94-2.95L88.02,208.51
				z"/>
			<path class="st12" d="M108.26,239.88l38.79-1.73l11.06-18.28c0,0-0.26-0.52-0.42-0.51c-8.41,0.4-26.6,0.41-37.39,0.86
				C119.53,220.25,108.26,239.88,108.26,239.88z"/>
			<path class="st6" d="M75.97,202.82c0,0-3.14,15.32-3.18,20.84c-0.03,4.84,2.14,6.76,2.93,7.12c2.88,1.31,9.5,1.44,12.64,0.98
				c1.91-0.28,7.98-1.88,7.98-1.88l-1.23-1.12c0,0-0.29-1.18,0.01-1.23c2.39-0.42,7.85-0.49,7.85-0.49s3.91,1.6,5.32,1.65
				c1.17,0.04,2.64-0.44,3.46-0.16c0.57,0.19,1.68,1.51,1.68,1.51s0.86-1.38,0.86-1.42c-0.08-0.46-0.65-1.02-0.65-1.02l1.4-0.28
				l2.71-4.58c0,0-0.52-0.56-0.75-0.67c-0.39-0.19-1.26-0.31-1.7-0.33c-1.88-0.08-7.52,0.13-7.52,0.13s-4.05,0.04-5.4,0.16
				c-1.79,0.15-5.99,0.82-7.16,0.77c-2.84-0.14-10.92-3.21-10.92-3.21l3.71-11.1L75.97,202.82z"/>
			<path class="st13" d="M121.22,164.27c0,0,1.27-5.32,1.16-7.15c-0.34-5.71-6.03-8.5-10.02-8.66c-2.35-0.09-6.32,1.02-7.94,3.3
				c-0.69,0.98-1.82,2.57-1.96,4.73c-0.25,4.02,0.11,6.51,0.11,6.51l1.38,4.72L121.22,164.27z"/>
			<path class="st6" d="M115.29,157.29c1.31,0.07,3.49-0.54,4.8-0.43c0.58,0.05,1.76,0.42,1.9,1.8c0.18,1.72-1.45,8.93-2.21,10.71
				c-0.6,1.41-4.32,8.55-8.36,8.15c-2.86-0.28-6.19-2.57-6.65-4.67c-0.29-1.32-0.83-4.1-0.83-4.1s-0.67-0.23-0.94-0.45
				c-0.82-0.69-0.9-2.48-1.26-3.49c-0.24-0.67,0.12-2.43,1.23-2.22c1.2,0.22,1,1.15,1.41,2.1c0.09,0.21,0.43,0.78,0.43,0.78
				s0.99-8.23,3.27-9.43C109.73,155.17,113.22,157.18,115.29,157.29z"/>
			<path class="st14" d="M107.68,239.46c0,0,0.57,0.51,0.64,0.4c2.13-3.45,11.54-18.71,11.54-18.71l0.42-0.68
				c0,0,28.41-0.76,37.45-1.06c0.15,0,0.38,0.46,0.38,0.46s0.04-0.51-0.04-0.66c-0.06-0.12-0.28-0.33-0.42-0.33
				c-9.27-0.01-28.01,0.38-37.41,0.71c-0.9,0.03-1.25,1.01-1.25,1.01L107.68,239.46z"/>
			<path class="st15" d="M105.28,170.71c0,0,0.51,0.67,1.35,1.61c0.41,0.47,0.9,1.01,1.47,1.54c0.56,0.54,1.19,1.07,1.88,1.5
				c0.34,0.22,0.7,0.39,1.07,0.52c0.37,0.14,0.77,0.23,1.13,0.32c0.74,0.16,1.44,0.17,2.02,0.01c0.29-0.08,0.54-0.2,0.76-0.31
				c0.22-0.12,0.4-0.24,0.54-0.36c0.28-0.23,0.44-0.37,0.44-0.37s-0.11,0.18-0.36,0.46c-0.25,0.27-0.65,0.66-1.28,0.9
				c-0.61,0.25-1.42,0.33-2.23,0.18c-0.41-0.07-0.8-0.17-1.21-0.31c-0.42-0.13-0.82-0.34-1.18-0.58c-1.47-0.94-2.54-2.3-3.29-3.31
				C105.66,171.46,105.28,170.71,105.28,170.71z"/>
		</g>
	</g>
	<g>
		<g>
			<g>
				<path class="st16" d="M272.65,266.38l-0.03-2.55c-0.03-1.94,0.35-3.58,1.12-4.93c0.77-1.35,2.16-2.66,4.16-3.96
					c1.59-1.03,2.73-1.96,3.42-2.78c0.69-0.82,1.03-1.75,1.02-2.8c-0.01-0.83-0.4-1.48-1.15-1.96c-0.76-0.47-1.74-0.7-2.95-0.69
					c-2.99,0.04-6.46,1.14-10.43,3.32l-4.23-8.01c4.89-2.87,10.01-4.35,15.37-4.42c4.41-0.06,7.88,0.86,10.42,2.77
					c2.54,1.9,3.83,4.53,3.87,7.87c0.03,2.39-0.5,4.47-1.59,6.24c-1.09,1.77-2.86,3.45-5.29,5.04c-2.06,1.37-3.35,2.37-3.86,3
					c-0.52,0.63-0.77,1.37-0.76,2.22l0.02,1.51L272.65,266.38z M271.51,276.78c-0.02-1.82,0.49-3.23,1.53-4.23
					c1.04-1,2.6-1.52,4.65-1.55c1.98-0.03,3.5,0.45,4.57,1.44c1.07,0.99,1.62,2.38,1.64,4.18c0.02,1.8-0.51,3.2-1.59,4.2
					c-1.08,1-2.58,1.52-4.47,1.54c-1.96,0.03-3.5-0.44-4.62-1.41C272.11,280,271.53,278.6,271.51,276.78z"/>
			</g>
			<g>
				<path class="st16" d="M302.23,235.74l-0.02-1.74c-0.02-1.32,0.24-2.45,0.77-3.37c0.53-0.92,1.48-1.82,2.84-2.7
					c1.09-0.7,1.86-1.34,2.34-1.9c0.47-0.56,0.7-1.2,0.69-1.91c-0.01-0.57-0.27-1.01-0.79-1.34c-0.52-0.32-1.19-0.48-2.01-0.47
					c-2.04,0.03-4.42,0.78-7.13,2.27l-2.89-5.48c3.34-1.96,6.84-2.97,10.5-3.02c3.01-0.04,5.39,0.59,7.12,1.89
					c1.73,1.3,2.62,3.09,2.65,5.38c0.02,1.64-0.34,3.06-1.09,4.26c-0.75,1.21-1.95,2.35-3.61,3.44c-1.41,0.94-2.29,1.62-2.64,2.05
					c-0.35,0.43-0.53,0.94-0.52,1.52l0.01,1.03L302.23,235.74z M301.45,242.84c-0.02-1.24,0.33-2.21,1.05-2.89
					c0.71-0.69,1.77-1.04,3.18-1.06c1.35-0.02,2.39,0.31,3.12,0.98c0.73,0.67,1.11,1.62,1.12,2.85c0.02,1.23-0.35,2.19-1.09,2.87
					c-0.74,0.69-1.76,1.04-3.06,1.05c-1.34,0.02-2.39-0.3-3.16-0.96C301.86,245.04,301.47,244.09,301.45,242.84z"/>
			</g>
			<g>
				<path class="st16" d="M275.81,211.6l-0.02-1.74c-0.02-1.32,0.24-2.45,0.77-3.37c0.53-0.92,1.48-1.82,2.84-2.7
					c1.09-0.7,1.86-1.34,2.34-1.9c0.47-0.56,0.7-1.2,0.69-1.91c-0.01-0.57-0.27-1.01-0.79-1.34c-0.52-0.32-1.19-0.48-2.01-0.47
					c-2.04,0.03-4.42,0.78-7.13,2.27l-2.89-5.48c3.34-1.96,6.84-2.97,10.5-3.02c3.01-0.04,5.39,0.59,7.12,1.89
					c1.73,1.3,2.62,3.09,2.65,5.38c0.02,1.64-0.34,3.06-1.09,4.26c-0.75,1.21-1.95,2.35-3.61,3.44c-1.41,0.94-2.29,1.62-2.64,2.05
					c-0.35,0.43-0.52,0.94-0.52,1.52l0.01,1.03L275.81,211.6z M275.03,218.71c-0.02-1.24,0.33-2.21,1.05-2.89
					c0.71-0.69,1.77-1.04,3.18-1.06c1.35-0.02,2.39,0.31,3.12,0.98c0.73,0.67,1.11,1.62,1.12,2.85c0.02,1.23-0.35,2.19-1.09,2.87
					c-0.74,0.69-1.76,1.04-3.06,1.05c-1.34,0.02-2.39-0.3-3.16-0.96C275.44,220.9,275.05,219.95,275.03,218.71z"/>
			</g>
		</g>
		<g>
			<g>
				<path class="st5" d="M254.76,409.17c0,0-2.67,1.03-3.47,1.54c-1.38,0.89-3.74,3.33-4.46,4.8c-0.21,0.44-0.23,1.59,0.02,2.08
					c0.63,1.26,2.85,3.24,4.18,3.62c1.3,0.37,5.4-0.15,5.4-0.15l3.09-10.27L254.76,409.17z"/>
				<path class="st6" d="M259,411.42c0,0-2.51,2.72-3.09,3.79c-0.58,1.07-1.85,3.47-1.48,4.63c0.39,1.19,1.99,1.22,1.99,1.22
					l2.96-0.39c0,0,7.63-0.14,10.16-0.32c1.44-0.1,4.37-0.17,5.72-0.64c0.69-0.24,2.51-1.54,2.51-1.54L259,411.42z"/>
				<path class="st5" d="M313.79,423.26c0,0,3.55,0.23,4.51,0.12c1.21-0.14,2.77-0.64,4.37-2.19c0.53-0.51,1.13-1.51,1.06-2.73
					c-0.13-2.44-0.73-3.32-1.41-4.18c-0.77-0.97-1.83-2.12-4.21-2.6c-1.27-0.26-4.18,0.54-5.47,0.71c-0.75,0.1-2.27-0.08-3.02-0.16
					c-6.33-0.68-8.3,1.66-8.3,1.66L313.79,423.26z"/>
				<path class="st6" d="M315.51,418.52c-0.58-2.93-2.05-4.29-3.45-4.74c-2.59-0.84-7.73,0.91-10.19,0.21
					c-0.37-0.11-1.19-0.71-1.19-0.71l-10.93-2.12l-5.32,7.4l0.04,0.06c0,0,4.65,0.52,6.17,0.84c2.11,0.44,6.16,1.93,8.3,2.12
					c0.37,0.03,1.11-0.15,1.48-0.13c1.2,0.08,3.45,1.06,4.63,1.29c2.29,0.45,5.88,0.67,8.94,0.49c1.46-0.09,1.68-1.05,1.8-1.57
					C316.01,420.75,315.66,419.28,315.51,418.52z"/>
				<path class="st17" d="M323.61,390.82c-2.49-1.76-6.03-1.59-7.97-1.07c-1.63,0.43-6.22,2.57-6.22,2.57s-2.41-1.2-2.87-1.93
					c-0.82-1.28-2.06-5.06-2.06-5.06s-12.48,2.81-16.72,2.83c-4.6,0.02-18.18-2.92-18.18-2.92s0.15,3.78-0.36,4.89
					c-0.79,1.7-4.34,4.28-6.15,4.29c-1.46,0-4.26-1.02-5.66-1.46c-1.75-0.55-4.72-2.19-7.03-2.14c-1.72,0.03-4.5,0.51-6,3.34
					c-0.52,0.99-1.5,3.08-1.54,4.2c-0.17,4.12,2.4,7.03,2.4,7.03s15.86,8.17,21.44,10.2c4.29,1.57,17.66,4.63,17.66,4.63
					s1.59-3.2,2.23-4.2c0.72-1.13,2.97-3.95,3.66-4.81c2.11,0.97,4.19,1.86,5.43,2.23c1.36,0.41,4.26,0.67,5.66,0.43
					c0.58-0.1,1.58-0.78,2.14-0.94c1.84-0.52,7.63-0.43,7.63-0.43l3-1.54c0,0,4.71-2.08,5.92-3.26c0.3-0.29,0.55-1.01,0.81-1.29
					c0.5-0.51,1.93-1.05,2.44-1.5c0.6-0.54,1.56-1.88,1.89-2.62c0.54-1.22,1.13-3.89,1.11-5.23
					C326.25,395.38,325,391.8,323.61,390.82z"/>
				<path class="st6" d="M255.53,354.44c-5.26,1.7-5.54,18.26-4.76,23.73c0.9,6.3,9,13.25,9,13.25l7.33-1.54l-4.18-10.38l-5.79-6
					l1.39-2.25l2.4-13.36C260.93,357.89,257.24,353.89,255.53,354.44z"/>
				<path class="st6" d="M309.15,353.29c0,0,8.64,8,11.83,10.01c1.51,0.95,6.43,3.1,6.43,3.1s2.76,0.53,3.25-0.12
					c3.51-4.55,4.34-9.64,4.05-20c-0.06-2.02,0.24-8.21,0.24-8.21s1.78-0.56,2.14-1.11c0.28-0.43,0.24-1.9,0.24-1.9
					s0.2-0.92,0.12-1.21c-0.09-0.34-0.83-1.13-0.83-1.13s0.16-0.78,0.06-1.01c-0.18-0.41-1.37-1.13-1.37-1.13s-0.08-1.31-0.36-1.61
					c-0.59-0.64-3.33-1.01-3.33-1.01l0.48-1.37c0,0,0.37-3.61-0.48-4.29c-0.2-0.16-0.83-0.06-1.01,0.12
					c-0.72,0.72-1.31,3.87-1.31,3.87s-0.73,2.2-1.01,2.92c-0.77,1.93-0.41,3.89,0.24,4.94c0.26,0.41,1.25,1.36,1.43,1.93
					c0.5,1.57-5.36,17.83-5.36,17.83l-9.64-8.43L309.15,353.29z"/>
				<path class="st8" d="M267.14,326.85c-1.72,2.92-7.4,2.25-10.67,9.39c-4.14,9.04,2.4,12.61,2.4,12.61l24.47,8.04
					c0,0,17.99-10.75,22.43-15.21c5-5.02,2.1-11.19,0.36-14.7c-2.2-4.44-9.8-6.56-11.33-12.93c-0.47-1.95-0.63-5.6-1.87-7.2
					c-1.63-2.13-3.73-5.21-9.67-5.47c-4.47-0.19-9.54,1.83-12.26,6.82C267.19,315.19,270.14,321.77,267.14,326.85z"/>
				<path class="st6" d="M283.87,352.47c7.86,0,13.67-9.87,13.67-16.57c0-0.94-0.13-1.86-0.37-2.74c-2.63,0.04-6.26,0.51-7.61-0.78
					c-1.2-1.14-0.34-6.22-0.34-6.22l-13.03,0.86c0,0,1.04,4.84,0.26,6.17c-0.26,0.45-1.39,0.7-1.89,0.86
					c-1.35,0.44-3.39,0.89-5.47,1.38c-0.01,0.15-0.01,0.31-0.01,0.46C269.08,342.6,276.01,352.47,283.87,352.47z"/>
				<path class="st6" d="M291.37,317.98c0,7.36-4.11,13.33-9.18,13.33c-5.07,0-9.18-5.97-9.18-13.33c0-7.36,4.26-11.56,9.33-11.56
					S291.37,310.62,291.37,317.98z"/>
				<path class="st15" d="M276.6,328.69c0,0,0.18,0.13,0.49,0.37c0.15,0.13,0.37,0.22,0.59,0.36c0.22,0.14,0.52,0.24,0.81,0.38
					c0.61,0.25,1.34,0.46,2.15,0.58c0.4,0.08,0.82,0.1,1.25,0.13c0.42,0.02,0.86,0.01,1.29-0.03c0.43-0.03,0.86-0.09,1.27-0.19
					c0.42-0.08,0.81-0.23,1.19-0.35c0.36-0.18,0.74-0.3,1.04-0.51c0.33-0.18,0.61-0.39,0.85-0.61c0.26-0.2,0.45-0.43,0.64-0.62
					c0.19-0.19,0.33-0.38,0.43-0.55c0.22-0.32,0.35-0.51,0.35-0.51s-0.09,0.2-0.25,0.56c-0.08,0.18-0.19,0.4-0.36,0.62
					c-0.16,0.23-0.32,0.5-0.58,0.73c-0.24,0.25-0.51,0.5-0.84,0.72c-0.31,0.25-0.69,0.43-1.08,0.63c-0.4,0.15-0.81,0.34-1.26,0.43
					c-0.44,0.11-0.89,0.18-1.35,0.22c-0.46,0.04-0.92,0.03-1.37,0.01c-0.45-0.03-0.89-0.09-1.31-0.18
					c-0.43-0.06-0.81-0.22-1.19-0.33c-0.36-0.15-0.71-0.28-1.01-0.45c-0.3-0.17-0.58-0.31-0.79-0.5c-0.21-0.18-0.42-0.3-0.55-0.45
					C276.75,328.85,276.6,328.69,276.6,328.69z"/>
				<path class="st4" d="M307.43,335.79c-2.04-1.2-7.15-2.23-9.11-2.51c-0.3-0.04-0.69-0.08-1.14-0.12c0.24,0.88,0.37,1.8,0.37,2.74
					c0,6.7-6.37,12.13-14.23,12.13c-7.86,0-14.23-5.43-14.23-12.13c0-0.16,0.01-0.31,0.01-0.46c-2.53,0.6-5.12,1.28-6.62,2.13
					c-2.49,1.41-4.68,3.26-5.85,4.84c-1.95,2.65-6.15,17.19-6.15,17.19l10.85,3.52l1.67-4.57l0.9,2.44l42.36-0.17l1.07-5.6
					l3.17,2.49l9.09-10.38C319.58,347.34,311.04,337.91,307.43,335.79z"/>
				<path class="st18" d="M311.18,391.33c0,3.74-6.12,6.82-9.86,6.82l-38.07-0.04c-3.56-1.97-6.74-3.6-6.74-7.34l-0.03-23.79
					c0-3.74,3.03-6.77,6.77-6.77h41.16c3.74,0,6.77,3.03,6.77,6.77V391.33z"/>
				<path class="st19" d="M290.21,411.14c0,0-0.5-0.22-1.36-0.61c-0.86-0.4-2.09-0.97-3.56-1.65c-1.47-0.69-3.17-1.53-5-2.41
					c-1.83-0.88-3.77-1.84-5.71-2.81c-0.97-0.49-1.91-0.96-2.89-1.35c-0.98-0.4-1.95-0.78-2.89-1.16c-1.89-0.75-3.64-1.49-5.1-2.24
					c-0.73-0.37-1.4-0.72-1.97-1.07c-0.56-0.35-1.05-0.72-1.39-1.05c-0.35-0.34-0.61-0.61-0.78-0.8c-0.17-0.19-0.26-0.29-0.26-0.29
					s0.44,0.31,1.21,0.86c0.39,0.27,0.87,0.53,1.48,0.79c0.59,0.28,1.27,0.56,2.02,0.85c1.52,0.56,3.29,1.21,5.19,1.9
					c0.95,0.36,1.94,0.72,2.93,1.16c1,0.42,2,0.92,2.94,1.44c1.91,1.02,3.82,2.04,5.6,3.03c1.78,0.98,3.44,1.88,4.86,2.69
					c1.41,0.81,2.59,1.48,3.41,1.95C289.75,410.86,290.21,411.14,290.21,411.14z"/>
				<path class="st19" d="M284.51,407.97c0,0,1.78-1.07,4.45-2.67c0.67-0.39,1.41-0.8,2.15-1.28c0.75-0.47,1.53-0.95,2.3-1.54
					c1.54-1.15,3.14-2.47,4.98-3.59c0.94-0.57,1.99-0.9,2.97-1.22c0.99-0.31,1.96-0.56,2.9-0.82c1.86-0.53,3.63-0.95,4.97-1.63
					c0.7-0.31,1.08-0.79,1.55-1.27c0.22-0.23,0.43-0.45,0.67-0.62c0.25-0.19,0.5-0.24,0.73-0.32c0.44-0.13,0.8-0.18,1.04-0.23
					c0.24-0.04,0.37-0.06,0.37-0.06s-0.5,0.16-1.33,0.5c-0.43,0.13-0.79,0.48-1.15,1.01c-0.19,0.25-0.38,0.52-0.63,0.82
					c-0.25,0.31-0.6,0.52-0.94,0.74c-1.4,0.82-3.14,1.45-5,2.03c-0.92,0.29-1.88,0.6-2.85,0.9c-0.96,0.32-1.9,0.65-2.74,1.15
					c-0.86,0.5-1.7,1.09-2.53,1.68c-0.84,0.59-1.67,1.17-2.46,1.73c-0.8,0.57-1.67,1-2.46,1.42c-0.79,0.44-1.56,0.79-2.25,1.14
					c-1.4,0.69-2.6,1.19-3.43,1.57C285,407.77,284.51,407.97,284.51,407.97z"/>
			</g>
			<path class="st8" d="M281.91,304.78c-5.73,0-10.37,3.91-10.37,8.73h20.74C292.28,308.69,287.64,304.78,281.91,304.78z"/>
			<path class="st6" d="M273.9,319.88c0.58,1.03,0.49,2.18-0.19,2.56c-0.69,0.39-1.71-0.13-2.29-1.16
				c-0.58-1.03-0.49-2.18,0.19-2.56C272.29,318.33,273.32,318.86,273.9,319.88z"/>
			<path class="st6" d="M289.9,319.88c-0.58,1.03-0.49,2.18,0.19,2.56c0.69,0.39,1.71-0.13,2.29-1.16c0.58-1.03,0.49-2.18-0.19-2.56
				S290.48,318.86,289.9,319.88z"/>
		</g>
	</g>
	<g>
		<path class="st20" d="M361.38,280.73c0-3.18-2.57-5.75-5.75-5.75c-1.35,0-2.6,0.47-3.58,1.25c-0.33-4.69-4.23-8.4-9.01-8.4
			c-3.64,0-6.76,2.15-8.2,5.25c-1.29-2.14-3.62-3.58-6.3-3.58c-4.06,0-7.35,3.29-7.35,7.35c0,0.02,0,0.03,0,0.05
			c-1.07-1.31-2.7-2.15-4.52-2.15c-3.22,0-5.83,2.61-5.83,5.83c0,2.91,2.14,5.32,4.93,5.76c0.28,0.1,0.58,0.16,0.9,0.16h39.17
			c0.25,0,0.48-0.04,0.71-0.1C359.28,285.96,361.38,283.59,361.38,280.73z M334.92,280.83h-0.2c0.04-0.06,0.08-0.12,0.11-0.19
			C334.86,280.71,334.89,280.77,334.92,280.83z"/>
		<path class="st20" d="M92.7,337.42c0-3.76-3.05-6.81-6.81-6.81c-1.6,0-3.08,0.56-4.24,1.49c-0.39-5.56-5.01-9.95-10.67-9.95
			c-4.31,0-8.01,2.55-9.71,6.21c-1.52-2.54-4.29-4.24-7.47-4.24c-4.81,0-8.71,3.9-8.71,8.71c0,0.02,0,0.04,0,0.06
			c-1.27-1.56-3.2-2.55-5.36-2.55c-3.82,0-6.91,3.09-6.91,6.91c0,3.45,2.53,6.31,5.84,6.82c0.34,0.11,0.69,0.19,1.07,0.19h46.4
			c0.29,0,0.57-0.05,0.84-0.12C90.21,343.62,92.7,340.81,92.7,337.42z M61.35,337.54h-0.24c0.05-0.07,0.09-0.15,0.13-0.22
			C61.28,337.39,61.32,337.47,61.35,337.54z"/>
		<path class="st20" d="M113.31,86.39c0-4.18-3.39-7.57-7.57-7.57c-1.78,0-3.42,0.62-4.71,1.65c-0.43-6.18-5.57-11.06-11.86-11.06
			c-4.79,0-8.9,2.83-10.79,6.91c-1.69-2.82-4.77-4.71-8.3-4.71c-5.35,0-9.68,4.33-9.68,9.68c0,0.02,0,0.04,0,0.06
			c-1.41-1.73-3.55-2.83-5.96-2.83c-4.24,0-7.68,3.44-7.68,7.68c0,3.84,2.82,7.01,6.49,7.58c0.37,0.13,0.77,0.21,1.19,0.21h51.56
			c0.32,0,0.63-0.05,0.93-0.13C110.55,93.28,113.31,90.16,113.31,86.39z M84.48,97.52h-0.27c0.05-0.08,0.1-0.16,0.15-0.24
			C84.4,97.36,84.44,97.44,84.48,97.52z"/>
		<path class="st20" d="M419.21,218.83c0.24,0.06,0.48,0.1,0.74,0.1h41.11c0.33,0,0.65-0.07,0.95-0.17
			c2.93-0.46,5.18-2.98,5.18-6.04c0-3.38-2.74-6.12-6.12-6.12c-1.92,0-3.62,0.88-4.75,2.26c0-0.02,0-0.03,0-0.05
			c0-4.26-3.46-7.72-7.72-7.72c-2.81,0-5.27,1.51-6.61,3.76c-1.51-3.25-4.79-5.5-8.6-5.5c-5.01,0-9.11,3.89-9.46,8.82
			c-1.03-0.82-2.34-1.32-3.76-1.32c-3.33,0-6.03,2.7-6.03,6.03C414.13,215.89,416.34,218.37,419.21,218.83z M442,212.79
			c0.04,0.06,0.08,0.13,0.12,0.19h-0.21C441.93,212.92,441.97,212.86,442,212.79z"/>
	</g>
	<g>
		<g>
			<path class="st5" d="M407.12,273.75c0,0-0.35,1.24,0.53,2.43c1.96,2.65,6.32,8.01,9.37,9.28c1.05,0.44,3.42,0.44,4.55,0.27
				c2.52-0.4,4.71-2.14,5.11-3.7c0.17-0.66,0.13-1.92-0.34-2.57c-1.85-2.54-9.5-8.22-9.5-8.22L407.12,273.75z"/>
			<path class="st5" d="M373.1,300.08c0,0-1.43,1.09-1.68,1.68c-0.29,0.68-0.09,2.23-0.24,2.96c-0.31,1.52-1.91,4.26-2.19,5.79
				c-0.07,0.4,0.03,1.23,0.04,1.63c0.09,2.43,6.27,4.77,9.72,2.52c0.84-0.55,1.49-2.81,1.63-3.8c0.25-1.67,0.02-6.74,0.02-6.74
				l-2.67-3.82L373.1,300.08z"/>
			<path class="st6" d="M403.14,268.54c0,0,1.03,2.37,1.55,3.05c1.1,1.46,5.35,4.99,5.35,4.99s1.27-0.15,2.21-0.97
				c0.62-0.54,0.67-2.57,1.37-3c1.37-0.85,3.4-1.24,3.4-1.24s-4.71-3.25-6.14-4.51c-0.75-0.66-2.78-2.87-2.78-2.87L403.14,268.54z"
				/>
			<path class="st6" d="M380.74,297.39c0,0,0.1,5-0.33,7c-0.06,0.25-0.29,0.51-0.29,0.51s-1.07-2.5-2.39-2.87
				c-2.95-0.84-5.65,0.88-5.65,0.88s-0.16-0.8-0.09-1.06c0.27-1.02,1.78-2.62,2.3-3.53c0.26-0.46,0.93-1.9,0.93-1.9L380.74,297.39z"
				/>
			<path class="st21" d="M373.7,297.63l7.49,0.2c0,0,2.43-17.94,3.58-23.86c1.26-6.49,1.11-13.33,1.59-17.76
				c0.1-0.96,0.53-3.84,0.53-3.84l-14.71-12.59c0,0-6.42,2.09-6.76,4.17c-0.52,3.14,6.14,8.38,6.76,10.87
				c0.95,3.78-0.87,11.68-0.66,15.57c0.13,2.46,1.19,7.29,1.46,9.74C373.45,284.49,373.7,297.63,373.7,297.63z"/>
			<path class="st22" d="M387.28,203.6c-0.53-3.91-6.52-8.13-6.56-10.8c-0.05-3.18,3.05-6.56-0.33-12.7
				c-1.48-2.68-5.23-3-6.09-10.36c0.7-6.68-3.58-12.76-9.87-13.79c-6.55-1.08-12.79,3.71-13.93,10.7c-0.08,0.46-0.12,0.92-0.15,1.37
				c-0.32,2.56-0.35,6.93,1.69,12.17c1.59,4.09,3.36,17.23,3.36,17.23l21.56,19.53C376.94,216.94,389.14,217.27,387.28,203.6z"/>
			<path class="st6" d="M382.42,220.69c-0.57-1.44-1.75-4.31-2.03-5.83c-0.25-1.34-0.18-5.43-0.18-5.43l-5.35,6.01l1.55,11.57
				l1.43,0.78l4.78,3.88c0,0,0.55-0.64,0.69-1.5C383.42,229.94,384.06,224.85,382.42,220.69z"/>
			<polygon class="st4" points="351.23,227.32 356.93,231.56 374.56,229.44 376.02,221.62 371.64,196.71 365.55,190.61 
				353.48,191.54 			"/>
			<path class="st23" d="M364.04,184.07c0,0,2.63,1.3,3.36,1.94c1.07,0.95,2.4,3.61,3.45,4.59c1.55,1.45,6,2.74,7.29,4.44
				c2.07,2.71,3.61,9.99,2.87,13.32c-0.47,2.1-3.62,5.45-4.24,7.51c-0.76,2.54,0.38,11.3,0.38,11.3l-1.18-0.25
				c0,0-2.47-2.19-3.18-8.75c-0.37-3.44,0.6-10.47-0.15-13.85c-0.61-2.71-4.62-10.1-4.62-10.1l-2.12-5.74l-2.39-2.39L364.04,184.07z
				"/>
			<path class="st6" d="M370.82,171.3c-0.25-0.17-0.55-0.21-0.86-0.16c0.56-5.34-2.96-3.06-7.28-9.07
				c-2.76-3.84-7.85-0.18-9.23,6.19c-0.33-0.24-0.69-0.34-1.04-0.25c-0.87,0.22-1.35,1.5-1.06,2.86c0.25,1.16,0.97,1.99,1.71,2.08
				c0.12,2.66,0.81,5.11,1.94,6.98c-0.55,2.72-2.26,3.31-2.26,3.31l2.96,8.66c0,0,3.63,4.2,7.82,3.98c3.36-0.18,4.15-2.78,4.15-2.78
				s-0.46-3.67-1.06-4.73c-0.39-0.69-1.86-1.5-2.3-2.16c-0.54-0.82-0.49-1.94-0.33-3.91c2-1.32,3.75-3.65,4.85-6.52
				c0.72,0.12,1.6-0.41,2.15-1.39C371.66,173.18,371.58,171.81,370.82,171.3z"/>
			<path class="st8" d="M374.29,241.68c0,0-6.36,6.19-12.66,8.24c-2.39,0.78-6.85,1.15-9.21,0.6c-6.69-1.57-8.87-5.51-9.81-8.35
				c-2.12-6.43,3.18-13.19,3.18-13.19s10.35-0.87,15.07-1.44c3.72-0.45,11.33-2.17,14.93-1.15c1.92,0.54,5.01,3.31,6.54,4.59
				c2.26,1.9,7.12,5.6,8.92,8c3.07,4.08,6.58,10.96,9.87,15.71c4.26,6.12,7.97,9.7,7.97,9.7l-6.36,5.21c0,0-7.54-6.77-9.98-9.1
				c-4.5-4.29-11.48-11-15.09-14.89C376.79,244.66,374.29,241.68,374.29,241.68z"/>
			<path class="st11" d="M340.98,209.52c0,0,0.56,15.53-1.41,20.19c-3.51,8.28,2.66,15.61,3.58,14.98c1.33-0.92,2.28-2.63,3.51-4.9
				c1.6-2.95,5.25-7.99,7.8-9.81c1.15-0.82,6.48-2.49,6.48-2.49l0.55-4.8l0.09-10.34l-12.11-17.05L340.98,209.52z"/>
			<path class="st6" d="M376.01,226.27c-0.32-0.69-1.78-0.57-2.83-1.15c-0.81-0.44-2.67-0.69-3.58-0.86
				c-0.85-0.16-2.61-0.38-3.4-0.68c-0.3-0.12-1.34-0.42-1.34-0.42s-0.03,0.01-0.05,0.01l-14.25-8.44c0,0-2.69-5.96-3.18-8.08
				c-0.36-1.55-0.49-6.33-0.49-6.33l-3.98-14.23c0,0-2.45,0.86-3.71,2.56c-3.34,4.51-1.59,9.25-1.59,12.37
				c0,6.01,2.78,14.55,6.46,18.1c3.4,3.28,16.44,7.38,16.44,7.38c0,0.01-0.01,0.02-0.01,0.03c-0.15,0.87-0.17,3.09,0.01,4.1
				c0.2,1.08,1.37,4.19,1.37,4.19s0.3,0.78,0.88,0.59c0.56-0.19,0.5-0.89,0.5-0.89l-0.92-3.48l0.13-1.77c0,0,0.14,0.13,0.21,0.2
				c0.43,0.43,0.43,1.71,0.59,2.28c0.27,0.98,1.06,2.52,1.62,3.36c0.13,0.19,0.65,0.66,1.02,0.03c0.2-0.34-0.12-1.58-0.12-1.58
				s-0.83-2.45-0.97-3.3c-0.07-0.38-0.09-1.56-0.09-1.56s0.36,0.31,0.44,0.44c0.38,0.59,0.68,1.98,0.97,2.61
				c0.24,0.51,0.7,1.71,1.24,1.9c0.13,0.05,0.67,0.12,0.85-0.18c0.28-0.47-0.27-2.19-0.27-2.19s-1.01-2.13-1.03-2.89
				c-0.01-0.3,0.41-1.29,0.41-1.29s0.84,0.09,1.09,0.23c0.58,0.33,1.39,1.69,2.02,1.88c0.6,0.18,0.75,0.07,0.97-0.1
				c0.48-0.36-0.15-0.95-0.25-1.26c-0.13-0.39-1.1-1.46-1.1-1.46s1.93-0.14,2.23-0.11c0.84,0.08,1.88,0.41,3.09,0.59
				C375.98,226.95,376.1,226.46,376.01,226.27z"/>
			<path class="st23" d="M354.53,181.4c0,0-0.73-0.13-2.29,0.23c-1.26,0.29-3.09,2.25-4.19,2.88c-1.21,0.7-4.36,0.74-5.3,1.77
				c-2,2.18-4.61,10.21-2.03,11.66c6.14,3.45,9.8,8.35,12.9,11.31c1.85,1.76,6.24,4.71,7.51,6.98c0.38,0.69,0.35,3.27,0.35,3.27
				s1.02-3,0.62-5.83c-0.43-3.04-2.75-8.81-3.27-11.84c-0.57-3.36-3.8-11.75-3.8-11.75l-2.3-6.85c0,0,0.86-0.51,1.08-0.76
				C354.36,181.86,354.53,181.4,354.53,181.4z"/>
			<path class="st15" d="M355.26,180.06c0,0,0.11,0.1,0.29,0.27c0.19,0.17,0.48,0.37,0.83,0.61c0.73,0.45,1.77,0.92,2.86,1.23
				c0.54,0.17,1.1,0.26,1.63,0.35c0.26,0.01,0.52,0.07,0.76,0.07c0.24,0.01,0.48,0.02,0.69,0c0.43-0.02,0.79-0.07,1.03-0.13
				c0.25-0.06,0.39-0.09,0.39-0.09s-0.13,0.07-0.36,0.19c-0.11,0.06-0.26,0.12-0.44,0.17c-0.17,0.07-0.37,0.13-0.59,0.16
				c-0.89,0.19-2.12,0.15-3.28-0.2c-0.58-0.17-1.14-0.39-1.63-0.65c-0.5-0.25-0.92-0.57-1.27-0.85c-0.34-0.29-0.58-0.58-0.73-0.78
				C355.33,180.18,355.26,180.06,355.26,180.06z"/>
		</g>
		<g>
			<g>
				<g>
					<ellipse class="st24" cx="395.66" cy="88.48" rx="50.54" ry="37.14"/>
				</g>
				<path class="st24" d="M399.17,138.8c-1.7,4.76,0.78,9.99,5.54,11.69c4.76,1.7,9.99-0.78,11.69-5.54
					c1.7-4.76-0.78-9.99-5.54-11.69C406.1,131.56,400.87,134.04,399.17,138.8z"/>
				<g>
					<path class="st24" d="M389.09,155.5c-0.8,2.24,0.37,4.71,2.61,5.51c2.24,0.8,4.71-0.37,5.51-2.61c0.8-2.24-0.37-4.71-2.61-5.51
						C392.36,152.08,389.89,153.25,389.09,155.5z"/>
				</g>
			</g>
			<g>
				<path class="st4" d="M384.15,90.66c0,2.28-1.85,4.14-4.14,4.14c-2.28,0-4.14-1.85-4.14-4.14s1.85-4.14,4.14-4.14
					C382.3,86.53,384.15,88.38,384.15,90.66z"/>
				<path class="st4" d="M398.82,90.66c0,2.28-1.85,4.14-4.14,4.14c-2.28,0-4.14-1.85-4.14-4.14s1.85-4.14,4.14-4.14
					C396.97,86.53,398.82,88.38,398.82,90.66z"/>
				<path class="st4" d="M413.49,90.66c0,2.28-1.85,4.14-4.14,4.14c-2.28,0-4.14-1.85-4.14-4.14s1.85-4.14,4.14-4.14
					C411.63,86.53,413.49,88.38,413.49,90.66z"/>
			</g>
		</g>
	</g>
</g>
<g id="DESIGNED_BY_FREEPIK">
</g>
</svg>
