<?xml version="1.0" encoding="utf-8"?>
<!-- Generator: Adobe Illustrator 26.0.1, SVG Export Plug-In . SVG Version: 6.00 Build 0)  -->
<svg version="1.1" id="Layer_1" xmlns="http://www.w3.org/2000/svg" xmlns:xlink="http://www.w3.org/1999/xlink" x="0px" y="0px"
	 viewBox="0 0 1080 1080" style="enable-background:new 0 0 1080 1080;" xml:space="preserve">
<style type="text/css">
	.st0{fill:#F9CADC;}
	.st1{fill:#FFFFFF;}
	.st2{fill:#4F3535;}
	.st3{fill:#EFA18F;}
	.st4{fill:#E59689;}
	.st5{fill:#F7AD97;}
	.st6{fill:#F49DC0;}
	.st7{fill:#C2C2C4;}
	.st8{fill:#A8A8A8;}
</style>
<circle class="st0" cx="539.61" cy="540.08" r="421.8"/>
<g>
	<path class="st1" d="M774.48,887.4c-67.13,45.08-147.93,71.38-234.87,71.38c-79.53,0-153.93-22.01-217.41-60.27
		c-5.91-3.57-11.73-7.27-17.45-11.11c7.93-40.81,20.39-79.24,37.99-96.83c40.13-40.13,67.65-45.82,104.75-58.96
		c0,0,61.71,32.17,93.98,91.98c0,0,31.55-51.43,90.27-91.98c37.09,13.14,64.62,18.83,104.75,58.96
		c11.61,11.61,20.98,32.29,28.3,56.74C768.56,859.91,771.78,873.52,774.48,887.4z"/>
</g>
<g>
	<path class="st2" d="M486.41,685.64c-43.25,8.79-98.86,3.83-124.58-5.31c-5.74-2.05-11.54-4.47-15.92-8.71
		c-4.39-4.25-7.1-10.69-5.41-16.55c2.74-9.5,14.42-12.55,22-18.92c7.37-6.2,10.93-16.05,11.41-25.68
		c0.49-9.64-1.76-19.18-4.26-28.49c-7.73-28.74-18.03-56.74-25.92-85.45c-7.89-28.71-13.37-74.96-11.13-104.64
		c2.27-29.68,12.83-59.46,33.54-80.83c19.01-19.63,57.16-35.14,95.84-21.52c18.33-24.57,50.25-47.51,99.89-51.33
		c79.23-6.1,126,29.45,155.02,75.81c27.91,44.58,22.6,116.99,13.94,168.17c-8.67,51.18-19.57,105.01-0.68,153.65
		c3.68,9.48,8.5,19.68,5.11,29.25c-3.31,9.31-13.36,14.74-22.89,18.6c-36,14.54-76.6,18.18-115.01,11.28L486.41,685.64z"/>
</g>
<g>
	<path class="st3" d="M631.74,731.61c-58.72,40.55-90.27,91.98-90.27,91.98c-32.27-59.81-93.98-91.98-93.98-91.98
		c17.33-11.05,31.01-27.37,38.92-45.97c8.25-16.67,9.8-34.4,9.8-34.4l83.74,1.33c0,0-1.33,11.08,17.41,42.4
		C605.51,709.66,617.37,722.45,631.74,731.61z"/>
</g>
<g>
	<path class="st4" d="M597.36,694.97c-23.56,3.78-50.25,3.14-73.83-0.6c-12.44-1.97-24.66-5.91-35.2-12.91
		c6.58-15.32,7.88-30.22,7.88-30.22l83.74,1.33C579.95,652.57,580.31,665.73,597.36,694.97z"/>
</g>
<g>
	<path class="st5" d="M717.49,502.63c-1.35,15.4-2.77,31.15-9.18,45.23c-3.98,8.71-10.58,17.12-19.91,19.37
		c-4.59,1.09-9.69-0.03-13.62-2.59c-14.8,43.11-62.59,120.79-133.05,120.79c-76.04,0-121.83-81.2-133.94-123.64
		c-3.97,4.48-10.94,6.88-16.97,5.44c-9.32-2.25-15.93-10.66-19.91-19.37c-6.4-14.08-7.83-29.83-9.18-45.23
		c-0.79-9.03-1.56-18.3,0.89-27.03c2.08-7.44,7.03-14.51,13.92-17.65c0,0,12.43-6.6,28.94,0c0,0-2.21-52.3,35.4-61.63
		c82.7-20.51,100.87,39.05,200.09-0.78c0,0,23.56,19.39,29.25,62.41c0,0,10.9-7.14,29.28-1.12c8.55,2.18,14.71,10.23,17.11,18.77
		C719.05,484.33,718.28,493.6,717.49,502.63z"/>
</g>
<path class="st6" d="M961.41,540.08c0,232.95-188.84,421.8-421.8,421.8c-89.22,0-171.97-27.7-240.12-74.97
	c7.43,4.09,15.01,7.96,22.71,11.6c63.48,38.26,137.88,60.27,217.41,60.27c86.94,0,167.74-26.3,234.87-71.38
	c-2.7-13.88-5.92-27.49-9.69-40.09c97.14-77.27,159.41-196.5,159.41-330.27c0-143.74-71.89-270.68-181.68-346.83
	C872.99,241.93,961.41,380.67,961.41,540.08z"/>
<g>
	<path class="st7" d="M774.48,887.4c-67.13,45.08-147.93,71.38-234.87,71.38c-79.53,0-153.93-22.01-217.41-60.27
		c54.64,25.86,115.73,40.33,180.2,40.33c99.18,0,190.37-34.23,262.39-91.53C768.56,859.91,771.78,873.52,774.48,887.4z"/>
</g>
<path class="st8" d="M539.61,972.88c-58.42,0-115.1-11.44-168.47-34.02c-51.54-21.8-97.82-53-137.57-92.75
	s-70.95-86.03-92.75-137.57c-22.57-53.37-34.02-110.05-34.02-168.47s11.44-115.1,34.02-168.47c21.8-51.54,53-97.82,92.75-137.57
	s86.03-70.95,137.57-92.75c53.37-22.57,110.05-34.02,168.47-34.02s115.1,11.44,168.47,34.02c51.54,21.8,97.82,53,137.57,92.75
	s70.95,86.03,92.75,137.57c22.57,53.36,34.02,110.05,34.02,168.47s-11.44,115.1-34.02,168.47c-21.8,51.54-53,97.82-92.75,137.57
	s-86.03,70.95-137.57,92.75C654.71,961.43,598.03,972.88,539.61,972.88z M539.61,129.28c-55.46,0-109.26,10.86-159.9,32.28
	c-48.92,20.69-92.85,50.31-130.58,88.04c-37.73,37.73-67.35,81.66-88.04,130.58c-21.42,50.64-32.28,104.44-32.28,159.9
	c0,55.46,10.86,109.26,32.28,159.9c20.69,48.92,50.31,92.85,88.04,130.58c37.73,37.73,81.66,67.35,130.58,88.04
	c50.64,21.42,104.44,32.28,159.9,32.28s109.26-10.86,159.9-32.28c48.92-20.69,92.85-50.31,130.58-88.04
	c37.73-37.73,67.35-81.67,88.04-130.58c21.42-50.64,32.28-104.44,32.28-159.9c0-55.46-10.86-109.26-32.28-159.9
	c-20.69-48.92-50.31-92.85-88.04-130.58c-37.73-37.73-81.66-67.35-130.58-88.04C648.87,140.14,595.07,129.28,539.61,129.28z"/>
</svg>
