<?xml version="1.0" encoding="utf-8"?>
<!-- Generator: Adobe Illustrator 26.0.1, SVG Export Plug-In . SVG Version: 6.00 Build 0)  -->
<svg version="1.1" id="Layer_1" xmlns="http://www.w3.org/2000/svg" xmlns:xlink="http://www.w3.org/1999/xlink" x="0px" y="0px"
	 viewBox="0 0 793.7 850.39" style="enable-background:new 0 0 793.7 850.39;" xml:space="preserve">
<style type="text/css">
	.st0{fill:#FCDEE8;}
	.st1{fill:#D91C52;}
	.st2{fill:#FEC867;}
	.st3{fill:#F8991D;}
	.st4{fill:#EE2761;}
	.st5{fill:#FDD7C1;}
	.st6{fill:#010101;}
	.st7{fill:#FFFFFF;}
	.st8{fill:#F9CBDF;}
	.st9{fill:none;stroke:#FFFFFF;stroke-miterlimit:10;}
	.st10{fill:#035783;}
	.st11{fill:none;stroke:#D91C52;stroke-miterlimit:10;}
	.st12{fill:none;stroke:#005786;stroke-linecap:round;stroke-miterlimit:10;}
</style>
<path class="st0" d="M234.57,277.92c15.96,3.31,32.21,4.24,48.22,2.07c24.68-3.35,57.33-12.7,80.04-37.76
	c41.12-45.37,115.59-91.11,162.56-33.29c46.97,57.82,30.56,123.55,74.31,138.26c43.75,14.71,87.17,68.38,54.87,138.65
	c-38.7,84.17-114.06,29.04-71.62,132.77c21.7,53.05-119.55,60.59-189.35,23.13c-63.97-34.33-127.03,56.07-186.99-1.84
	c-59.96-57.91,31.61-129.3-13.95-168.2c-45.56-38.89-79.64-62.75-57.93-132.05C151.04,287.7,209.98,272.82,234.57,277.92z"/>
<g>
	<path class="st1" d="M525.28,517.6l20.79-37.44l20.79-37.44c2.48-4.47,8.68-4.47,11.16,0l20.79,37.44l20.79,37.44
		c2.48,4.47-0.62,10.05-5.58,10.05h-17.11l-0.63,132.6l-48.55-1.66V527.65h-16.88C525.9,527.65,522.8,522.07,525.28,517.6z"/>
	<path class="st1" d="M210.33,323.22l20.79-36.01l20.79-36.01c2.48-4.3,8.68-4.3,11.16,0l20.79,36.01l20.79,36.01
		c2.48,4.3-0.62,9.67-5.58,9.67h-16.99l-0.18,296.88h-49V332.89h-16.99C210.95,332.89,207.85,327.52,210.33,323.22z"/>
	<path class="st1" d="M317.69,473.06l20.79-37.44l20.79-37.44c2.48-4.47,8.68-4.47,11.16,0l20.79,37.44l20.79,37.44
		c2.48,4.47-0.62,10.05-5.58,10.05h-17.11l-0.88,185.64c0,4.22-9.24-4.64-13.3-4.64l-25.73-1.54c-4.06,0-9.28,9.16-9.28,4.94V483.11
		h-16.88C318.31,483.11,315.21,477.52,317.69,473.06z"/>
</g>
<g>
	<path class="st1" d="M579.25,326.88l1.05-34.14l-1.87,2.6l-1.31,31.59l0.04,0.03c-3.92,1.24-4.59,8.05-4.7,10.64
		c-0.02,0.56,0.38,1.04,0.94,1.1l3.2,0.37c0.54,0.06,1.04-0.3,1.16-0.84l0.38-1.82l0.9,2.36c0.14,0.37,0.48,0.63,0.87,0.68
		l1.84,0.21c0.61,0.07,1.15-0.38,1.18-0.99C583.06,335.72,583.07,327.89,579.25,326.88z"/>
	<path class="st1" d="M487.51,213.91l89.33,11.43c1.39,0.18,2.59,1.06,3.17,2.33l36.28,78.81c1.35,2.93-1.09,6.18-4.28,5.71
		l-86.17-12.77c-1.3-0.19-2.43-1-3.02-2.17l-39.44-77.47C481.9,216.87,484.28,213.5,487.51,213.91z"/>
</g>
<g>
	<rect x="480.03" y="431.06" class="st2" width="11.01" height="42.22"/>
	<path class="st3" d="M514.92,506.24h-58.76c-1.22,0-2.21-0.99-2.21-2.21v-30.4c0-1.22,0.99-2.21,2.21-2.21h58.76
		c1.22,0,2.21,0.99,2.21,2.21v30.4C517.13,505.25,516.14,506.24,514.92,506.24z"/>
	<path class="st2" d="M596.02,317.33c-10.18-17.34-29.42-11.15-38.34-7.02l2.9-19.7c0.94-6.38-3.96-12.12-10.4-12.2l-122.85-1.64
		c-6.71-0.09-12.05,5.61-11.52,12.3l1.66,20.91c-9.2-4.12-27.71-9.54-37.62,7.34c-12.65,21.55,18.48,82.47,56.56,67.06
		c3.8,4.3,8.16,8.1,12.98,11.26c0.11,0.07,0.2,0.13,0.31,0.19c0.99,0.58,6.59,3.84,9.85,5.26c0.19,0.08,0.35,0.16,0.52,0.27
		c9.84,5.85,22.63,15.46,20.41,24.95l10.86-0.06c0,0-3.54-13.76,17.66-22.52c1.39-0.45,4.25-1.57,4.88-1.82
		c0.09-0.03,0.17-0.07,0.25-0.1c9.31-3.98,17.52-10.2,23.9-18.04C576.77,401.31,608.82,339.14,596.02,317.33z M392.28,324.84
		c6.68-11.38,18.63-9.08,25.87-6.28l2.24,28.22c0.84,10.63,4.27,20.51,9.62,29.06C403.75,381.52,383.37,340.01,392.28,324.84z
		 M543.84,375.31c3.7-6.5,6.3-13.77,7.45-21.61l5.09-34.6c7.01-3,20.09-6.38,27.2,5.74C592.72,340.39,571.06,383.65,543.84,375.31z"
		/>
	<polygon class="st3" points="416.39,296.38 559.11,296.38 558.34,305.77 417.13,305.77 	"/>
	<path class="st3" d="M497.13,435.8h-23.19c-0.54,0-0.98-0.44-0.98-0.98v-7.51c0-0.54,0.44-0.98,0.98-0.98h23.19
		c0.54,0,0.98,0.44,0.98,0.98v7.51C498.12,435.36,497.68,435.8,497.13,435.8z"/>
</g>
<path class="st4" d="M515.26,241.63l-19.92,27.69c-1.72,2.39-1.83,5.57-0.27,8.06c6.67,10.62,26.77,37.92,60.17,43.42
	c2.68,0.44,5.38-0.73,6.97-2.93l20.19-28.07c1.57-2.18,1.81-5.04,0.61-7.44c-5.22-10.51-22.42-38.18-60.92-43.68
	C519.46,238.3,516.82,239.46,515.26,241.63z"/>
<polygon id="_x3C_Path_x3E__00000087407854696117724660000007010065441778819768_" class="st5" points="306.86,594.02 
	306.62,601.79 296.6,601.74 296.64,593.97 "/>
<path id="_x3C_Path_x3E__00000009586069927989977530000000684042988649915824_" class="st6" d="M296.6,601.74l9.79,0.05
	c0.15,0,0.29,0.02,0.43,0.05c1.4,0.33,9.36,2.34,16.36,6.22c1.74,0.96,1.03,3.63-0.96,3.62l-23.74-0.12
	c-1.07-0.01-1.93-0.87-1.92-1.94L296.6,601.74z"/>
<polygon id="_x3C_Path_x3E__00000000924595554140374080000008933078388054322343_" class="st5" points="234.12,610.13 
	233.88,617.89 223.86,617.84 223.9,610.07 "/>
<path id="_x3C_Path_x3E__00000044872699080686441300000007555714700773844355_" class="st6" d="M223.86,617.84l9.79,0.05
	c0.15,0,0.29,0.02,0.43,0.05c1.4,0.33,9.36,2.34,16.36,6.22c1.74,0.96,1.03,3.63-0.96,3.62l-23.74-0.12
	c-1.07-0.01-1.93-0.87-1.92-1.94L223.86,617.84z"/>
<path class="st6" d="M251.62,506.43L241.95,557l-19.36,54.65c0,0-0.98,1.8,1.71,2.64h10.53c0,0,1.5-0.33,2.19-1.63l21.68-40.85
	l12.55-41.08l28.84,21.86l-6.42,42.79c0,0,0.07,1.22,1.77,1.22c1.7,0,11.7,0,11.7,0s1.24-0.36,1.54-1.61l11.26-47.18
	c0-0.02,0.01-0.04,0.02-0.05c0.06-0.16,0.27-1.07-1.44-3.15c-1.9-2.32-27.3-33.36-27.3-33.36L251.62,506.43z"/>
<path class="st5" d="M323.18,454.92l7.45,3.97l22.56-17.03c0,0-2.17-3.85-1.67-6.96c0.5-3.11,1.41-3.68,2.05-3.17
	c0.63,0.51,0.56,4.25,1.91,4.96c1.35,0.71,1.94-0.06,3.53-4.28c1.6-4.22,2.3-6.16,3.62-6.21c1.33-0.05,1.17,2.93,1.17,2.93
	s1.17-0.59,2.08-0.02c0.92,0.57,0.54,1.76,0.54,1.76s0.76-0.29,1.73,0.49c0.97,0.78,0.37,2.13,0.37,2.13s1.66-0.68,1.66,1.76
	c0.01,2.44-1.17,10.34-11.13,12.24c0,0-23.58,28.3-27.31,28.27c-3.73-0.03-14.48-3.7-14.48-3.7L323.18,454.92z"/>
<path class="st1" d="M254.65,514.85h-6.56c-0.28-2.42-1.19-6.19-4.04-9.19c-2.81-2.96-6.77-4.46-11.78-4.46
	c-8.58,0-12.71,4.62-14.66,8.5c-0.93,1.84-1.44,3.68-1.73,5.15h-6.79c-2.03,0-3.67,1.64-3.67,3.67v27.89c0,2.03,1.64,3.67,3.67,3.67
	h45.56c2.03,0,3.67-1.64,3.67-3.67v-27.89C258.32,516.49,256.68,514.85,254.65,514.85z M232.28,506.14c3.58,0,6.33,0.97,8.17,2.9
	c1.72,1.8,2.4,4.13,2.66,5.81h-22.21C221.78,511.31,224.4,506.14,232.28,506.14z"/>
<path class="st5" d="M250,465.77l-8.27,1.72l-6.45,27.52c0,0,4.13,1.58,5.74,4.29c1.61,2.71,1.6,5.13,0.82,4.51
	c-0.48-0.38-1.17-0.74-2.14-1.19c-1.31-0.61-2-1.45-2.86-1.27c-1.49,0.32-3,1.22-1.3,4.15c1.64,2.84,5.94,3.07,5.01,4.02
	c-2.37,2.4-4.69-0.03-4.69-0.03s-0.6,1.34-1.67,1.49c-1.07,0.15-1.77-1.67-1.77-1.67s-0.64,1.18-1.88,1.2
	c-1.24,0.02-1.77-1.66-1.77-1.66s-1.64,2-3.21,0.13c-1.56-1.87-4.82-6.7,1.62-14.53c0,0,0.03-36.84,2.92-39.2
	c2.89-2.36,13.49-6.42,13.49-6.42L250,465.77z"/>
<path class="st7" d="M250.45,508.24c5.41,2.14,26.05,9.57,42.88,5.82c0.73-0.16,1.25-0.82,1.26-1.57
	c0.09-5.29,0.65-25.68,4.17-32.42c2.61-5,4.14-8.25,4.9-9.93c0.35-0.78,1.24-1.15,2.04-0.85l12.11,4.43
	c0.85,0.31,1.79-0.13,2.1-0.98l5.77-15.99c0.29-0.81-0.09-1.71-0.89-2.05c-4.43-1.92-18.52-7.76-29.75-9.44
	c-13.38-2.01-18.15-16.29-54.35,3.69c-0.65,0.36-0.94,1.16-0.65,1.85l6.23,14.98c0.34,0.81,1.26,1.21,2.09,0.9l10.34-3.94
	c1.25-0.48,2.51,0.67,2.16,1.96l-11.37,41.6C249.26,507.1,249.67,507.93,250.45,508.24z"/>
<path class="st5" d="M305.26,408.07c0,0,0.29,3.17,3.68,9.91c3.46,6.88,2.35,17.08-2.99,19.07c-4.15,1.55-7.13,0.65-7.13,0.65
	l-2.14,10.87l-13.32-5.22l1.46-9.23l-2.66-20.84L305.26,408.07z"/>
<path class="st6" d="M308.96,401.71c0.11-1.03-0.87-1.86-1.85-1.56c-2.04,0.63-6.02,1.21-13.19,0.25
	c-13.69-1.83-20.74,10.01-20.64,18.6c0.09,7.36,7.96,11.51,10.44,14.59c0.54,0.67,1.55,0.68,2.14,0.07
	c1.41-1.44,3.39-3.59,3.46-4.44c0.1-1.33-3.78-1.53-3.98-5.52s5.11-4.5,6.64-1.43c1.53,3.07,0.82-7.56,3.68-8.58
	C298.29,412.74,308.02,410.52,308.96,401.71z"/>
<path class="st5" d="M283.9,441.24c0,0-3.28,8.02,4.89,11.05s8.41-6.67,8.41-6.67L283.9,441.24z"/>
<path id="_x3C_Path_x3E__00000097471453844532199990000011508733706907357100_" class="st7" d="M341.23,609.43
	c0,1.19,0.89,2.16,1.99,2.16h191.59c14.21,0,25.73-10.32,25.73-23.04v-7.51c0-12.72-11.52-23.04-25.73-23.04H343.23
	c-1.1,0-1.99,0.97-1.99,2.16v0.39c0,1.19,0.88,2.15,1.98,2.16l2.5,0.02l0.14,44.55l-2.63,0
	C342.13,607.27,341.23,608.24,341.23,609.43L341.23,609.43z"/>
<path id="_x3C_Path_x3E__00000124847492789458557870000010176898072890024370_" class="st8" d="M474.16,562.54l-128.62,0.18
	l0.14,44.55h129.82c6.68,0,12.09-5.85,12.09-13.08v-17.14C487.58,569.04,481.57,562.54,474.16,562.54z"/>
<path id="_x3C_Path_x3E__00000095329883894216443140000009760865918906708608_" class="st8" d="M520.22,587.72v-5.85
	c0-0.96-0.78-1.74-1.74-1.74h-19.84c-0.96,0-1.74,0.78-1.74,1.74v5.85c0,0.96,0.78,1.74,1.74,1.74h19.84
	C519.44,589.46,520.22,588.68,520.22,587.72z"/>
<line id="_x3C_Path_x3E__00000039825403079633538240000013534231394596262017_" class="st9" x1="480.4" y1="569.49" x2="345.86" y2="569.49"/>
<line id="_x3C_Path_x3E__00000176006795236341744040000017908873632905590975_" class="st9" x1="470.7" y1="576.21" x2="345.86" y2="576.21"/>
<line id="_x3C_Path_x3E__00000104690382940585853690000017929278410708497321_" class="st9" x1="480.4" y1="588.37" x2="345.86" y2="588.37"/>
<line id="_x3C_Path_x3E__00000090264113241031675750000000146743183413146026_" class="st9" x1="482.51" y1="600.99" x2="345.86" y2="600.99"/>
<path id="_x3C_Path_x3E__00000140011889034161809230000003241609360410264489_" class="st8" d="M613.92,666.77
	c0,1.28-1.43,2.32-3.19,2.32h-306.7c-22.75,0-41.19-11.1-41.19-24.78v-8.08c0-13.69,18.44-24.78,41.19-24.78h306.7
	c1.76,0,3.19,1.04,3.19,2.32v0.42c0,1.28-1.41,2.31-3.17,2.32l-4.01,0.02l-0.23,47.92l4.21,0
	C612.49,664.44,613.92,665.48,613.92,666.77L613.92,666.77z"/>
<path id="_x3C_Path_x3E__00000132076122159342178550000014598028718410684063_" class="st7" d="M399.72,616.33l207.08,0.2
	l-0.23,47.92H400.76c-11.66,0-21.12-6.88-21.12-15.36v-18.15C379.64,622.87,388.63,616.33,399.72,616.33z"/>
<path id="_x3C_Path_x3E__00000052101614527909882380000013494797884687243954_" class="st10" d="M350.41,655.69h-8.71
	c-1.4,0-2.54-1.14-2.54-2.54v-22.09c0-1.4,1.14-2.54,2.54-2.54h8.71c1.4,0,2.54,1.14,2.54,2.54v22.09
	C352.95,654.55,351.81,655.69,350.41,655.69z"/>
<path id="_x3C_Path_x3E__00000011020672268963659940000017029756611965395364_" class="st10" d="M329.3,655.81h-8.71
	c-1.4,0-2.54-1.14-2.54-2.54v-22.09c0-1.4,1.14-2.54,2.54-2.54h8.71c1.4,0,2.54,1.14,2.54,2.54v22.09
	C331.83,654.67,330.7,655.81,329.3,655.81z"/>
<line id="_x3C_Path_x3E__00000163783740866122123050000006484042930630002082_" class="st11" x1="402.74" y1="623.8" x2="606.52" y2="623.8"/>
<line id="_x3C_Path_x3E__00000160155384165713759720000011128392009724535221_" class="st11" x1="430.57" y1="639.91" x2="606.65" y2="639.91"/>
<line id="_x3C_Path_x3E__00000141444651381276477790000014463145838637581706_" class="st11" x1="386.33" y1="645.95" x2="606.52" y2="645.95"/>
<line id="_x3C_Path_x3E__00000123407951834060024440000001349828819135665564_" class="st11" x1="395.39" y1="659.53" x2="606.52" y2="659.53"/>
<path id="_x3C_Path_x3E__00000044868938481660451530000009968492662721492125_" class="st8" d="M574.4,556.37
	c0,1.16-0.86,2.1-1.93,2.1H386.82c-13.77,0-24.93-10.05-24.93-22.45v-7.32c0-12.4,11.16-22.45,24.93-22.45h185.65
	c1.07,0,1.93,0.94,1.93,2.1v0.38c0,1.16-0.86,2.1-1.92,2.1l-2.43,0.02l-0.14,43.42l2.55,0C573.53,554.26,574.4,555.21,574.4,556.37
	L574.4,556.37z"/>
<path id="_x3C_Path_x3E__00000107585302304840289460000005811086945911253156_" class="st7" d="M444.73,510.67l125.35,0.18
	l-0.14,43.42H445.37c-7.06,0-12.78-6.23-12.78-13.92V523.9C432.58,516.59,438.02,510.67,444.73,510.67z"/>
<path id="_x3C_Path_x3E__00000150082543296859834470000006171770579477538720_" class="st7" d="M413.89,546.33h-3.27
	c-1.4,0-2.54-1.14-2.54-2.54v-19.53c0-1.4,1.14-2.54,2.54-2.54h3.27c1.4,0,2.54,1.14,2.54,2.54v19.53
	C416.42,545.2,415.29,546.33,413.89,546.33z"/>
<path id="_x3C_Path_x3E__00000113343093427011626820000013033450035691004087_" class="st7" d="M401.11,546.44h-3.27
	c-1.4,0-2.54-1.14-2.54-2.54v-19.53c0-1.4,1.14-2.54,2.54-2.54h3.27c1.4,0,2.54,1.14,2.54,2.54v19.53
	C403.64,545.31,402.51,546.44,401.11,546.44z"/>
<line id="_x3C_Path_x3E__00000068659750193739651540000017555993707023612040_" class="st11" x1="446.56" y1="517.44" x2="569.92" y2="517.44"/>
<line id="_x3C_Path_x3E__00000030455745717181700320000011287673085350727584_" class="st11" x1="463.41" y1="532.04" x2="569.99" y2="532.04"/>
<line id="_x3C_Path_x3E__00000039133502596477543080000010879596331834262178_" class="st11" x1="436.63" y1="537.51" x2="569.92" y2="537.51"/>
<line id="_x3C_Path_x3E__00000011753139260537196190000006512720062529596328_" class="st11" x1="442.12" y1="549.81" x2="569.92" y2="549.81"/>
<path id="_x3C_Path_x3E__00000007394751875991289880000015705267729437776829_" class="st7" d="M184.75,668.04
	c0,0.93,0.86,1.69,1.92,1.69h184.26c13.67,0,24.74-8.08,24.74-18.04v-5.88c0-9.96-11.08-18.04-24.74-18.04H186.67
	c-1.06,0-1.92,0.76-1.92,1.69v0.31c0,0.93,0.85,1.68,1.9,1.69l2.41,0.02l0.14,34.88l-2.53,0
	C185.61,666.35,184.75,667.11,184.75,668.04L184.75,668.04z"/>
<path id="_x3C_Path_x3E__00000085937029181045857220000011409111209562544052_" class="st8" d="M312.61,631.33l-123.55,0.14
	l0.14,34.88h124.69c6.41,0,11.61-4.58,11.61-10.24V642.7C325.5,636.42,319.73,631.33,312.61,631.33z"/>
<line id="_x3C_Path_x3E__00000128450948734731192650000010541992436566195086_" class="st9" x1="318.6" y1="636.77" x2="189.2" y2="636.77"/>
<line id="_x3C_Path_x3E__00000163783752494754005210000003244271206511289738_" class="st9" x1="309.27" y1="642.03" x2="189.2" y2="642.03"/>
<line id="_x3C_Path_x3E__00000101098900098456737160000010288176067541527203_" class="st9" x1="318.6" y1="651.55" x2="189.2" y2="651.55"/>
<line id="_x3C_Path_x3E_" class="st9" x1="320.63" y1="661.43" x2="189.2" y2="661.43"/>
<line class="st12" x1="112.56" y1="669.72" x2="660.69" y2="669.72"/>
</svg>
