<?xml version="1.0" encoding="utf-8"?>
<!-- Generator: Adobe Illustrator 26.0.1, SVG Export Plug-In . SVG Version: 6.00 Build 0)  -->
<svg version="1.1" xmlns="http://www.w3.org/2000/svg" xmlns:xlink="http://www.w3.org/1999/xlink" x="0px" y="0px"
	 viewBox="0 0 500 500" style="enable-background:new 0 0 500 500;" xml:space="preserve">
<style type="text/css">
	.st0{fill:#F9DEE8;}
	.st1{fill:#F5F5F5;}
	.st2{opacity:0.5;fill:#727172;}
	.st3{fill:#D6D4D6;}
	.st4{fill:#E54180;}
	.st5{opacity:0.4;fill:#B20D4C;}
	.st6{fill:#353032;}
	.st7{fill:#37474F;}
	.st8{fill:#455A64;}
	.st9{fill:#263238;}
	.st10{fill:#E0E0E0;}
	.st11{fill:#27DEBF;}
	.st12{opacity:0.1;fill:#FFFFFF;}
	.st13{fill:#E3185C;}
	.st14{opacity:0.8;fill:#E3185C;}
	.st15{opacity:0.4;}
	.st16{fill:#63032A;}
	.st17{opacity:0.1;fill:#63032A;}
	.st18{fill:#B20D4C;}
	.st19{opacity:0.6;fill:#B20D4C;}
	.st20{opacity:0.1;fill:#E3185C;}
	.st21{fill:#FFFFFF;}
	.st22{fill:#F0F0F0;}
	.st23{opacity:0.6;}
	.st24{opacity:0.6;fill:#FFFFFF;}
	.st25{opacity:0.79;}
	.st26{fill:#D1427C;}
	.st27{opacity:0.8;fill:#D1427C;}
	.st28{opacity:0.5;}
	.st29{opacity:0.6;fill:#E3185C;}
	.st30{opacity:0.1;fill:#B20D4C;}
	.st31{fill:#D81364;}
	.st32{opacity:0.7;}
	.st33{opacity:0.2;}
	.st34{opacity:0.7;fill:#E3185C;}
	.st35{opacity:0.5;fill:#E3185C;}
	.st36{opacity:0.4;fill:#63032A;}
	.st37{opacity:0.7;fill:#D1427C;}
	.st38{opacity:0.79;fill:#D1427C;}
	.st39{opacity:0.5;fill:#E0E0E0;}
	.st40{opacity:0.2;fill:#E3185C;}
	.st41{opacity:0.2;fill:#F5F5F5;}
	.st42{display:none;opacity:0.5;fill:#27DEBF;}
	.st43{opacity:0.2;fill:#B20D4C;}
	.st44{fill:#FFA8A7;}
	.st45{fill:#F28F8F;}
	.st46{fill:#8D9392;}
	.st47{opacity:0.6;fill:#8C8C8C;}
	.st48{opacity:0.5;fill:#969998;}
	.st49{fill:#8C8C8C;}
</style>
<g id="Floor">
	<path class="st0" d="M138.27,128.52c11.5,2.39,23.2,3.06,34.74,1.49c17.78-2.41,41.3-9.15,57.66-27.2
		c29.62-32.68,83.27-65.63,117.1-23.98c33.84,41.65,22.01,89,53.53,99.6c31.52,10.59,62.8,49.26,39.52,99.88
		c-27.87,60.63-82.16,20.92-51.59,95.64c15.63,38.21-86.12,43.65-136.4,16.66c-46.08-24.73-91.5,40.39-134.7-1.33
		s22.77-93.14-10.05-121.16C75.27,240.1,50.72,222.92,66.36,173C78.09,135.56,120.55,124.84,138.27,128.52z"/>
</g>
<g id="Shadows">
</g>
<g id="Pencil">
	<path id="XMLID_17836_" class="st1" d="M422.7,98.07v21.47c0,0-8.83,4.13-25.03,4.13c-16.2,0-25.01-4.14-25.01-4.14V98.48
		l16.88-47.77c-0.22,1.5,0.66,3.03,2.64,4.17c3.15,1.82,6.19,2.03,9.73,0.61c0.45-0.17,0.87-0.38,1.27-0.61
		c2.1-1.21,2.96-2.87,2.58-4.44L422.7,98.07z"/>
	<path id="XMLID_17835_" class="st2" d="M422.7,98.07v21.47c0,0-8.83,4.13-25.03,4.13c-16.2,0-25.01-4.14-25.01-4.14V98.48
		l16.88-47.77c-0.22,1.5,0.66,3.03,2.64,4.17c3.15,1.82,6.19,2.03,9.73,0.61c0.45-0.17,0.87-0.38,1.27-0.61
		c2.1-1.21,2.96-2.87,2.58-4.44L422.7,98.07z"/>
	<path id="XMLID_17834_" class="st3" d="M420.76,248.57c-1.22,1.69-3.02,3.27-5.4,4.64c-9.77,5.64-25.62,5.64-35.4,0
		c-2.38-1.37-4.18-2.96-5.4-4.64c-1.19-1.65-1.83-3.4-1.92-5.16v10.33v0.82c0.17,3.56,2.61,7.09,7.31,9.81
		c9.78,5.64,25.62,5.64,35.4,0c4.89-2.82,7.33-6.52,7.33-10.22v-11.15C422.7,244.89,422.05,246.79,420.76,248.57z"/>
	<path id="XMLID_17833_" class="st4" d="M420.76,237.42c-1.22,1.69-3.02,3.27-5.4,4.64c-0.57,0.33-1.17,0.64-1.78,0.93
		c-9.22,4.4-22.62,4.4-31.84,0c-0.61-0.29-1.21-0.6-1.78-0.93c-2.38-1.37-4.18-2.96-5.4-4.64c-1.19-1.65-1.83-3.4-1.92-5.16v10.33
		v0.82c0.09,1.76,0.72,3.51,1.92,5.16c1.22,1.69,3.02,3.27,5.4,4.64c9.78,5.64,25.62,5.64,35.4,0c2.38-1.37,4.18-2.96,5.4-4.64
		c1.29-1.78,1.93-3.68,1.93-5.57v-11.15C422.7,233.74,422.05,235.64,420.76,237.42z"/>
	<path id="XMLID_17832_" class="st3" d="M420.76,226.27c-1.22,1.69-3.02,3.27-5.4,4.64c-0.57,0.33-1.17,0.64-1.78,0.93
		c-9.22,4.4-22.62,4.4-31.84,0c-0.61-0.29-1.21-0.6-1.78-0.93c-2.38-1.37-4.18-2.96-5.4-4.64c-1.19-1.65-1.83-3.4-1.92-5.16v10.33
		v0.82c0.09,1.76,0.72,3.51,1.92,5.16c1.22,1.69,3.02,3.27,5.4,4.64c0.57,0.33,1.17,0.64,1.78,0.93c9.22,4.4,22.62,4.4,31.84,0
		c0.61-0.29,1.21-0.6,1.78-0.93c2.38-1.37,4.18-2.96,5.4-4.64c1.29-1.78,1.93-3.68,1.93-5.57V220.7
		C422.7,222.6,422.05,224.49,420.76,226.27z"/>
	<path id="XMLID_17831_" class="st5" d="M372.65,98.49v121.8v0.82c0.09,1.76,0.72,3.51,1.92,5.16c1.22,1.69,3.02,3.27,5.4,4.65
		c0.57,0.33,1.17,0.64,1.78,0.93c2.31,1.1,4.88,1.93,7.58,2.48l-4.53-129.23L372.65,98.49z"/>
	<path id="XMLID_17830_" class="st5" d="M410.54,105.09l-4.53,129.23c2.7-0.55,5.27-1.38,7.57-2.48c0.61-0.29,1.21-0.6,1.78-0.93
		c2.38-1.37,4.18-2.96,5.4-4.64c1.29-1.78,1.93-3.68,1.93-5.57V98.07L410.54,105.09z"/>
	<path id="XMLID_17829_" class="st5" d="M372,98.49v121.8v0.82c0.09,1.76,0.72,3.51,1.92,5.16c1.22,1.69,3.02,3.27,5.4,4.65
		c0.57,0.33,1.17,0.64,1.78,0.93c2.31,1.1,4.88,1.93,7.58,2.48l-4.53-129.23L372,98.49z"/>
	<path id="XMLID_17827_" class="st5" d="M410.84,105.09l-4.53,129.23c2.7-0.55,5.27-1.38,7.57-2.48c0.61-0.29,1.21-0.6,1.78-0.93
		c2.38-1.37,4.18-2.96,5.4-4.64c1.29-1.78,1.93-3.68,1.93-5.57V98.07L410.84,105.09z"/>
	<path id="XMLID_17825_" class="st4" d="M384.8,105.09v127.98c1.45,0.5,2.96,0.92,4.53,1.24c2.69,0.55,5.52,0.82,8.34,0.82h0
		c2.82,0,5.65-0.27,8.34-0.82c1.56-0.32,3.07-0.74,4.53-1.24V105.09L384.8,105.09z"/>
	<path id="XMLID_17820_" class="st6" d="M403.17,54.89c-0.4,0.23-0.82,0.44-1.27,0.61c-3.54,1.42-6.58,1.21-9.73-0.61
		c-1.98-1.14-2.86-2.68-2.64-4.17l5.76-16.13c0.44-1.06,1.4-1.58,2.37-1.58h0.01c0.97,0,1.93,0.52,2.38,1.58l5.7,15.84
		c0,0.01,0.01,0.02,0.01,0.02C406.14,52.02,405.27,53.68,403.17,54.89z"/>
	<path id="XMLID_17801_" class="st4" d="M415.37,264.36c-8.4,4.85-21.27,5.52-30.94,2.03c-0.54-0.2-1.07-0.41-1.59-0.63
		c-0.24-0.1-0.49-0.2-0.73-0.31c-0.74-0.34-1.46-0.7-2.15-1.1c-4.71-2.72-7.14-6.25-7.31-9.81v30.35c-0.19,3.83,2.25,7.7,7.31,10.63
		c0.6,0.35,1.23,0.68,1.88,0.98c0.24,0.11,0.5,0.21,0.75,0.32c0.41,0.18,0.82,0.37,1.25,0.53c0.33,0.13,0.68,0.23,1.01,0.35
		c0.36,0.12,0.71,0.26,1.08,0.37c0.4,0.12,0.82,0.23,1.23,0.33c0.32,0.08,0.63,0.18,0.95,0.26c0.47,0.11,0.95,0.2,1.43,0.3
		c0.27,0.05,0.54,0.12,0.81,0.16c0.54,0.09,1.09,0.17,1.64,0.24c0.22,0.03,0.43,0.07,0.65,0.09c0.61,0.07,1.22,0.12,1.84,0.17
		c0.16,0.01,0.32,0.03,0.48,0.04c0.67,0.04,1.34,0.06,2.01,0.07c0.1,0,0.21,0.01,0.31,0.01c0.72,0.01,1.44-0.01,2.16-0.04
		c0.05,0,0.11,0,0.16,0c0.76-0.03,1.52-0.09,2.27-0.16c0.01,0,0.03,0,0.04,0c4.64-0.46,9.09-1.68,12.77-3.66v0l0,0
		c0.22-0.12,0.45-0.22,0.67-0.35c4.89-2.82,7.33-6.52,7.33-10.22v-31.17C422.7,257.84,420.25,261.54,415.37,264.36z"/>
</g>
<g id="Backpack">
	<g id="XMLID_17864_">
		<path id="XMLID_17922_" class="st7" d="M108.48,244.08c-2.89-0.73-18.32-9.51-19.89-10.58c-1.57-1.07-4.68-3.28-4.68-7.08
			c0-3.38,0.35-35.15,3.11-50.51c1.36-7.55,6.26-17.45,15.85-23.4c9.6-5.95,19.24-10.26,27.38-6.88
			c8.14,3.37,15.55,9.59,18.75,17.09c3.2,7.5,5.39,22.52,5.62,28.33c0.23,5.81,0,25.73,0,27.5c0,1.77-0.32,4.07-9.85,9.97
			c-9.53,5.9-22.69,13-26.76,14.83C114.92,244.74,111.1,244.74,108.48,244.08z"/>
		<path id="XMLID_17919_" class="st8" d="M106.1,156.64c-0.88,0.51-3.42-0.75-3.8-1.38c-0.38-0.63-0.48-6.08,1.42-9.09
			c1.9-3.01,13.76-8.55,16.69-8.15c2.93,0.41,5.08,2.7,5.44,3.48c0.36,0.78,0.76,5.85,0,6.88c-0.76,1.03-3.47-0.56-3.71-1
			c-0.24-0.45,0.89-4.14-1.02-4.92c-1.74-0.7-9.99,2.81-13.36,5.63c-1.46,1.22-1.39,4.28-1.32,5.79
			C106.5,155.4,106.54,156.38,106.1,156.64z"/>
		<path id="XMLID_17918_" class="st8" d="M103.72,192.42c1.7-16.52,4.77-26.15,20.92-33.34c16.15-7.19,22.41-1.07,24.7,4.44
			c3.02,7.72,5.07,21.92,5.29,27.53c0.23,5.81,0,25.73,0,27.5c0,1.77-0.32,4.07-9.85,9.97c-9.53,5.9-22.69,13-26.76,14.83
			c-3.1,1.39-6.91,1.39-9.54,0.73c-0.4-0.1-1.05-0.36-1.86-0.73C101.59,236.92,102.16,207.5,103.72,192.42z"/>
		<path id="XMLID_17914_" class="st9" d="M141.37,152.63c-4.21-2.47-11.14-4.1-21.29,0.43c-18.16,8.09-22.77,18.22-24.6,35.97
			c-0.34,3.25-0.82,7.13-1.03,11.31l-1.5-0.91c0.21-4.5,0.65-8.36,1.03-11.83c1.96-17.91,7.37-27.82,24.73-35.54
			c9.6-4.28,15.92-3.71,20.1-1.61C139.58,151.05,140.33,151.65,141.37,152.63z"/>
		<path id="XMLID_17913_" class="st8" d="M142,153.09c-4.21-2.47-11.14-4.1-21.29,0.43c-18.16,8.09-22.77,18.22-24.6,35.97
			c-0.34,3.25-0.82,7.13-1.03,11.3l-1.5-0.91c0.21-4.5,0.65-8.36,1.03-11.83c1.96-17.91,7.37-27.82,24.73-35.54
			c9.6-4.28,16.09-3.57,20.27-1.46C140.39,151.66,140.96,152.11,142,153.09z"/>
		<g id="XMLID_17906_">
			<path id="XMLID_17911_" class="st9" d="M136.12,168.79l-5.49-3.13c-0.56-0.32-1.28-0.13-1.6,0.44l-5.63,9.79
				c-0.32,0.56-0.13,1.28,0.43,1.61l5.42,3.16c0.56,0.33,1.28,0.14,1.6-0.42l5.71-9.84C136.88,169.82,136.68,169.11,136.12,168.79z"
				/>
			<path id="XMLID_17910_" class="st8" d="M130.23,179.53l5.41-9.33c0.16-0.28,0.07-0.64-0.22-0.8l-4.98-2.84
				c-0.28-0.16-0.64-0.06-0.8,0.22l-5.34,9.29c-0.16,0.28-0.07,0.64,0.21,0.8l4.92,2.87C129.71,179.9,130.07,179.81,130.23,179.53z"
				/>
			<g id="XMLID_17907_">
				<path id="XMLID_17909_" class="st7" d="M131.39,175.07L131.39,175.07c0.29-0.17,0.52-0.53,0.52-0.82v-4.46
					c0-0.29-0.23-0.39-0.52-0.22l0,0c-0.29,0.17-0.52,0.53-0.52,0.82v4.46C130.87,175.14,131.1,175.23,131.39,175.07z"/>
				<path id="XMLID_17908_" class="st7" d="M128.49,176.75L128.49,176.75c0.29-0.17,0.52-0.53,0.52-0.82v-4.46
					c0-0.29-0.23-0.39-0.52-0.22l0,0c-0.29,0.17-0.52,0.53-0.52,0.82v4.46C127.97,176.81,128.2,176.91,128.49,176.75z"/>
			</g>
		</g>
		<path id="XMLID_17905_" class="st9" d="M111.2,206.38c0,0,2.72,2.24,4.68,10.68c1.95,8.44,3.14,19.07,0.98,20.35
			c-2.16,1.27-5.23-1.39-5.99-2.32C109.3,233.2,109.69,213.14,111.2,206.38z"/>
		<path id="XMLID_17904_" class="st7" d="M111.2,206.38c0,0,2.72,2.24,4.68,10.68c1.95,8.44,3.14,19.07,0.98,20.35l33.04-19.46
			c2.16-1.27,2.69-12.44,0.74-20.88c-1.29-5.56-3.65-8.2-5.12-9.35c-0.68-0.54-1.62-0.59-2.37-0.15L111.2,206.38"/>
		<path id="XMLID_17903_" class="st9" d="M144.82,188.99c1.58,0.79,4.26,2.93,5.47,8.65c0.38,1.8-0.25,3.56-1.35,4.34
			c-1.1,0.78-24.71,14.21-27.84,16.08c-2.7,1.61-4.11-0.53-4.7-1.87l0,0c-0.98-2.38-1.86-4.23-2.6-5.65
			c-1.38-3.15-2.59-4.15-2.59-4.15l31.47-17.29C143.33,188.7,144.14,188.65,144.82,188.99z"/>
		<g id="XMLID_17875_">
			<g id="XMLID_17896_">
				<path id="XMLID_17901_" class="st9" d="M95.49,201.76c0,0,0.95,3.68,0.89,5.25c-0.01,0.36-0.48,0.55-0.63,0.55
					c-0.84,0.02-2.88-1.25-3.06-1.6c-0.17-0.34,0.82-4.48,0.82-4.48L95.49,201.76z"/>
			</g>
			<g id="XMLID_17876_">
				<path id="XMLID_17894_" class="st9" d="M96.51,200.35c0-1.05-0.85-1.91-1.91-1.91c-1.05,0-1.91,0.85-1.91,1.91
					c0,1.05,0.85,1.91,1.91,1.91C95.65,202.26,96.51,201.41,96.51,200.35z"/>
			</g>
		</g>
		<path id="XMLID_17874_" class="st9" d="M120.4,142.37c2.09-0.2,4.06-0.02,4.56,2.09c0.5,2.1,0.32,3.99,0,4.26
			c-1.09-0.04-2.65-1.01-2.83-1.34c-0.24-0.45,0.89-4.14-1.02-4.92C120.94,142.39,120.7,142.37,120.4,142.37L120.4,142.37z"/>
		<path id="XMLID_17873_" class="st7" d="M143.33,187.45c0.66-0.39,1.47-0.43,2.15-0.1c1.58,0.79,4.26,2.93,5.47,8.65
			c0.38,1.8-0.25,3.56-1.35,4.34c-1.1,0.78-24.71,14.21-27.84,16.08c-2.7,1.61-4.11-0.53-4.7-1.87l0,0
			c-3.26-6.84-5.86-8.17-5.86-8.17L143.33,187.45z"/>
	</g>
</g>
<g id="Game_Console">
</g>
<g id="Cloud">
</g>
<g id="Character">
	<path id="XMLID_17783_" class="st10" d="M384.67,347.11l-1.96-1.12l1.42-0.64c0,0,1.12,0.29,1.14,0.35
		c0.03,0.05-0.08,0.77-0.08,0.77L384.67,347.11z"/>
	<g>
		<path id="XMLID_17780_" class="st11" d="M384.67,347.11l-1.96-1.12l1.42-0.64c0,0,1.12,0.29,1.14,0.35
			c0.03,0.05-0.08,0.77-0.08,0.77L384.67,347.11z"/>
		<path id="XMLID_41_" class="st12" d="M384.67,347.11l-1.96-1.12l1.42-0.64c0,0,1.12,0.29,1.14,0.35c0.03,0.05-0.08,0.77-0.08,0.77
			L384.67,347.11z"/>
	</g>
	<g>
		<path id="XMLID_00000125590934243697614120000004203141074368404409_" class="st13" d="M287.25,384.6c1.58,0.91,4.14,0.91,5.71,0
			l64.14-37.03l-96.02-55.44l-2.24-1.3l-64.14,37.03c-1.57,0.91-1.57,2.4,0,3.3L287.25,384.6z"/>
		<path id="XMLID_00000150784244536587581940000015256039612949557933_" class="st14" d="M287.25,384.6c1.58,0.91,4.14,0.91,5.71,0
			l64.14-37.03l-96.02-55.44l-2.24-1.3l-64.14,37.03c-1.57,0.91-1.57,2.4,0,3.3L287.25,384.6z"/>
	</g>
	<path id="XMLID_00000000200027901773275660000001706960243618824379_" class="st14" d="M311.34,314.64l22.37,12.87l14.48-8.36
		l16.84,9.73c0,0,0,10.67,0,12.14c0,1.47-1.65,3.57-2.25,3.22c0,0-1.32,0.27-3.22,1.14c-1.9,0.87-4.65,3.44-4.65,3.44l-51.4-29.67
		L311.34,314.64z"/>
	<g class="st15">
		<path id="XMLID_00000035523505746632083580000000905811476120682135_" class="st16" d="M293.34,317.64l22.37,12.87l14.48-8.36
			l16.84,9.73c0,0,0,10.67,0,12.14c0,1.47-1.65,3.57-2.25,3.22c0,0-1.32,0.27-3.22,1.14c-1.9,0.87-4.65,3.44-4.65,3.44l-51.4-29.67
			L293.34,317.64z"/>
		<path id="XMLID_00000114780385049701142920000014588736135126172302_" class="st17" d="M293.34,317.64l22.37,12.87l14.48-8.36
			l16.84,9.73c0,0,0,10.67,0,12.14c0,1.47-1.65,3.57-2.25,3.22c0,0-1.32,0.27-3.22,1.14c-1.9,0.87-4.65,3.44-4.65,3.44l-51.4-29.67
			L293.34,317.64z"/>
	</g>
	<g class="st15">
		<path id="XMLID_00000084516387567190695100000015661316882531501498_" class="st18" d="M292.97,384.59l3.87-2.24l58.07-33.53
			c0.02-0.73,0.32-1.44,0.79-2.08c0.66-0.92,1.65-1.72,2.54-2.23c0.68-0.4,1.7-0.86,2.74-0.86c0.7,0,1.32,0.22,1.8,0.59
			c0.37-0.51,1.07-2.45,1.07-4.81h2.2c0,3.03-1,6.08-2.23,6.78l-1.11,0.65c-0.63,0.36-1.12,0.38-1.12,0.04v-0.59
			c0-0.66-1-0.63-2.24,0.09c-1.23,0.71-2.23,1.83-2.23,2.48v0.59c0,0.34-0.86,1.1-1.9,1.7l-56.16,32.43l-6.08,3.51
			c0,0-0.01,0-0.01,0.01c-0.79,0.44-1.81,0.67-2.85,0.67v-2.54C291.14,385.28,292.18,385.06,292.97,384.59z"/>
		<path id="XMLID_00000124863605221501176050000007144999862173992848_" class="st19" d="M292.97,384.59l3.87-2.24l58.07-33.53
			c0.02-0.73,0.32-1.44,0.79-2.08c0.66-0.92,1.65-1.72,2.54-2.23c0.68-0.4,1.7-0.86,2.74-0.86c0.7,0,1.32,0.22,1.8,0.59
			c0.37-0.51,1.07-2.45,1.07-4.81h2.2c0,3.03-1,6.08-2.23,6.78l-1.11,0.65c-0.63,0.36-1.12,0.38-1.12,0.04v-0.59
			c0-0.66-1-0.63-2.24,0.09c-1.23,0.71-2.23,1.83-2.23,2.48v0.59c0,0.34-0.86,1.1-1.9,1.7l-56.16,32.43l-6.08,3.51
			c0,0-0.01,0-0.01,0.01c-0.79,0.44-1.81,0.67-2.85,0.67v-2.54C291.14,385.28,292.18,385.06,292.97,384.59z"/>
	</g>
	<g>
		<path id="XMLID_00000161593128887955872750000015367397177418322319_" class="st13" d="M193.53,329.47v2.58
			c0,0.59,0.37,1.18,1.13,1.63l0.04,0.02l86.47,49.92l6.07,3.51v0.01c0,0,0.01-0.01,0.01,0c0.79,0.44,1.81,0.67,2.85,0.67v-2.54
			c-1.03,0-2.07-0.22-2.86-0.68l-3.86-2.23h-0.01l-88.67-51.21C193.87,330.67,193.54,330.1,193.53,329.47z"/>
		<path id="XMLID_00000124159459406329748470000011931127463495012280_" class="st20" d="M193.53,329.47v2.58
			c0,0.59,0.37,1.18,1.13,1.63l0.04,0.02l86.47,49.92l6.07,3.51v0.01c0,0,0.01-0.01,0.01,0c0.79,0.44,1.81,0.67,2.85,0.67v-2.54
			c-1.03,0-2.07-0.22-2.86-0.68l-3.86-2.23h-0.01l-88.67-51.21C193.87,330.67,193.54,330.1,193.53,329.47z"/>
	</g>
	<path id="XMLID_00000044861332191476470790000017447921352916621996_" class="st21" d="M290.11,365.16v14.82
		c0.69,0,1.39-0.14,1.9-0.45l7.04-4.06l53.59-30.94l0.01-15.48L290.11,365.16z"/>
	<path id="XMLID_00000147907078675013188370000017742533710204741013_" class="st22" d="M196.32,312.86v11.41
		c0,1.21,0.86,2.69,1.9,3.3l82.96,47.9l7.03,4.06c0.52,0.31,1.21,0.45,1.9,0.45v-13.25L196.32,312.86z"/>
	<g class="st23">
		<path id="XMLID_00000120538279871669422900000009720282671103539368_" class="st21" d="M261.09,271.03l96.02,55.44
			c0,0,0,0.57,0,1.29c0,0.71,1,0.98,2.23,0.26c1.24-0.71,2.24-1.61,2.24-2.84l0.12-1.22l-97.83-56.47l-0.4-0.23
			c-0.1,0.19-0.16,0.4-0.16,0.59v0.59C263.31,269.16,262.32,270.31,261.09,271.03z"/>
		<path id="XMLID_00000139277924268321630710000016469219401608805764_" class="st24" d="M261.09,271.03l96.02,55.44
			c0,0,0,0.57,0,1.29c0,0.71,1,0.98,2.23,0.26c1.24-0.71,2.24-1.61,2.24-2.84l0.12-1.22l-97.83-56.47l-0.4-0.23
			c-0.1,0.19-0.16,0.4-0.16,0.59v0.59C263.31,269.16,262.32,270.31,261.09,271.03z"/>
	</g>
	<g>
		<path id="XMLID_00000097502755932943618000000006199588159831851185_" class="st13" d="M292.97,363.51l62.72-36.21
			c0.8-0.42,1.52-0.75,1.83-0.59l-0.41-0.23l-96.02-55.44c0,0-0.56-0.32-1.12-0.65c-0.62-0.36-1.97-0.16-3.03,0.45l-62.23,35.93
			c-1.57,0.91-1.57,2.4,0,3.3l92.54,53.44C288.83,364.42,291.39,364.42,292.97,363.51z"/>
		<path id="XMLID_00000052091710782104463540000008794495581925860013_" class="st14" d="M292.97,363.51l62.72-36.21
			c0.8-0.42,1.52-0.75,1.83-0.59l-0.41-0.23l-96.02-55.44c0,0-0.56-0.32-1.12-0.65c-0.62-0.36-1.97-0.16-3.03,0.45l-62.23,35.93
			c-1.57,0.91-1.57,2.4,0,3.3l92.54,53.44C288.83,364.42,291.39,364.42,292.97,363.51z"/>
	</g>
	<g class="st25">
		<path id="XMLID_00000085236076783412516430000016903715132643591041_" class="st26" d="M263.48,267.26l0.4,0.23l97.83,56.47
			c0,0,0.07-0.15,0.21-0.26c0.09-0.05,0.2-0.11,0.33-0.19l0.7-0.41c0.26-0.15,0.56-0.33,0.87-0.51c0.41-0.23,0.78-0.19,1.11,0.1
			c0.04,0.02,0.08,0.05,0.11,0.1c0.11,0.11,0.21,0.25,0.3,0.41c0.1,0.16,0.19,0.35,0.25,0.55c0.08,0.2,0.14,0.42,0.2,0.64
			c0.06,0.24,0.1,0.48,0.14,0.75c0.03,0.14,0.04,0.3,0.05,0.45c0.01,0.12,0.02,0.23,0.03,0.36c0.02,0.27,0.03,0.56,0.03,0.86v-2.75
			c0-1.52-1.29-3.49-2.86-4.4l-92.55-53.44c-1.58-0.91-3.86-1.07-5.09-0.36l-1.17,0.68l-0.04,0.02c-0.08,0.05-0.27,0.17-0.49,0.29
			c0,0-0.01,0-0.01,0.01C263.7,266.94,263.57,267.08,263.48,267.26z"/>
		<path id="XMLID_00000091713197366344164490000009279549950677199521_" class="st27" d="M263.48,267.26l0.4,0.23l97.83,56.47
			c0,0,0.07-0.15,0.21-0.26c0.09-0.05,0.2-0.11,0.33-0.19l0.7-0.41c0.26-0.15,0.56-0.33,0.87-0.51c0.41-0.23,0.78-0.19,1.11,0.1
			c0.04,0.02,0.08,0.05,0.11,0.1c0.11,0.11,0.21,0.25,0.3,0.41c0.1,0.16,0.19,0.35,0.25,0.55c0.08,0.2,0.14,0.42,0.2,0.64
			c0.06,0.24,0.1,0.48,0.14,0.75c0.03,0.14,0.04,0.3,0.05,0.45c0.01,0.12,0.02,0.23,0.03,0.36c0.02,0.27,0.03,0.56,0.03,0.86v-2.75
			c0-1.52-1.29-3.49-2.86-4.4l-92.55-53.44c-1.58-0.91-3.86-1.07-5.09-0.36l-1.17,0.68l-0.04,0.02c-0.08,0.05-0.27,0.17-0.49,0.29
			c0,0-0.01,0-0.01,0.01C263.7,266.94,263.57,267.08,263.48,267.26z"/>
	</g>
	<g class="st28">
		<path id="XMLID_00000074423204483175578050000003696907073317468340_" class="st13" d="M292.95,363.52c0.01,0,0.01-0.01,0.01-0.01
			l3.88-2.24l44.61-25.74l14.24-8.23c1.01-0.59,1.84-0.8,1.89-0.49c0.01,0.01,0.01,0.02,0.01,0.03v0.65c0,0.71,1,0.71,2.23,0
			c1.21-0.69,1.74-1.55,1.76-2.24v-0.7c0-0.36,0.14-0.74,0.33-0.84c0.09-0.05,0.21-0.12,0.33-0.19c0.2-0.11,0.44-0.25,0.7-0.41
			c0.26-0.15,0.56-0.33,0.87-0.51c0.41-0.23,0.78-0.19,1.11,0.1c0.04,0.02,0.08,0.05,0.11,0.1c0.08,0.08,0.14,0.16,0.2,0.26
			c0.04,0.04,0.07,0.09,0.1,0.14c0.1,0.16,0.19,0.35,0.25,0.55c0.08,0.2,0.14,0.42,0.2,0.64c0.06,0.24,0.1,0.48,0.14,0.75
			c0.03,0.14,0.04,0.3,0.05,0.45c0.01,0.12,0.02,0.23,0.03,0.36c0.02,0.27,0.03,0.56,0.03,0.86v9.63h-2.2v-9.63
			c0-0.23-0.01-0.46-0.02-0.68l-0.05-0.55c0-0.02,0-0.03-0.01-0.05c-0.2,1.75-1.87,3.31-3.32,4.13c-0.65,0.38-1.65,0.84-2.68,0.84
			c-0.77,0-1.46-0.27-1.97-0.73l-0.2,0.11c-0.13,0.08-0.25,0.15-0.38,0.23l-56.16,32.43l-6.08,3.51c0,0-0.01,0-0.01,0.01
			c-0.01,0.01-0.02,0.01-0.04,0.02c-0.78,0.43-1.79,0.65-2.8,0.65v-2.54C291.25,364.19,292.15,363.94,292.95,363.52z"/>
		<path id="XMLID_00000023996509947520642800000009201127062158493104_" class="st29" d="M292.95,363.52c0.01,0,0.01-0.01,0.01-0.01
			l3.88-2.24l44.61-25.74l14.24-8.23c1.01-0.59,1.84-0.8,1.89-0.49c0.01,0.01,0.01,0.02,0.01,0.03v0.65c0,0.71,1,0.71,2.23,0
			c1.21-0.69,1.74-1.55,1.76-2.24v-0.7c0-0.36,0.14-0.74,0.33-0.84c0.09-0.05,0.21-0.12,0.33-0.19c0.2-0.11,0.44-0.25,0.7-0.41
			c0.26-0.15,0.56-0.33,0.87-0.51c0.41-0.23,0.78-0.19,1.11,0.1c0.04,0.02,0.08,0.05,0.11,0.1c0.08,0.08,0.14,0.16,0.2,0.26
			c0.04,0.04,0.07,0.09,0.1,0.14c0.1,0.16,0.19,0.35,0.25,0.55c0.08,0.2,0.14,0.42,0.2,0.64c0.06,0.24,0.1,0.48,0.14,0.75
			c0.03,0.14,0.04,0.3,0.05,0.45c0.01,0.12,0.02,0.23,0.03,0.36c0.02,0.27,0.03,0.56,0.03,0.86v9.63h-2.2v-9.63
			c0-0.23-0.01-0.46-0.02-0.68l-0.05-0.55c0-0.02,0-0.03-0.01-0.05c-0.2,1.75-1.87,3.31-3.32,4.13c-0.65,0.38-1.65,0.84-2.68,0.84
			c-0.77,0-1.46-0.27-1.97-0.73l-0.2,0.11c-0.13,0.08-0.25,0.15-0.38,0.23l-56.16,32.43l-6.08,3.51c0,0-0.01,0-0.01,0.01
			c-0.01,0.01-0.02,0.01-0.04,0.02c-0.78,0.43-1.79,0.65-2.8,0.65v-2.54C291.25,364.19,292.15,363.94,292.95,363.52z"/>
	</g>
	<g class="st15">
		<path id="XMLID_00000131348790415472306530000006331845280224417941_" class="st18" d="M194.53,308.39v2.58
			c0,0.59,0.37,1.18,1.13,1.63l0.04,0.02l86.47,49.92l6.07,3.51v0.01c0,0,0.01-0.01,0.01,0c0.79,0.44,1.81,0.67,2.85,0.67v-2.54
			c-1.03,0-2.07-0.22-2.86-0.68l-3.86-2.23h-0.01l-88.67-51.21C194.87,309.58,194.54,309.01,194.53,308.39z"/>
		<path id="XMLID_00000037674344265141353010000001637698601712381587_" class="st30" d="M194.53,308.39v2.58
			c0,0.59,0.37,1.18,1.13,1.63l0.04,0.02l86.47,49.92l6.07,3.51v0.01c0,0,0.01-0.01,0.01,0c0.79,0.44,1.81,0.67,2.85,0.67v-2.54
			c-1.03,0-2.07-0.22-2.86-0.68l-3.86-2.23h-0.01l-88.67-51.21C194.87,309.58,194.54,309.01,194.53,308.39z"/>
	</g>
	<path id="XMLID_00000119814615023772423130000011188209963788540064_" class="st31" d="M256.94,270.83
		c1.05-0.61,2.41-0.81,3.03-0.45c0.56,0.32,1.12,0.65,1.12,0.65c1.24-0.73,2.23-1.87,2.23-2.58v-0.59c0-0.2,0.07-0.41,0.16-0.59
		c0.09-0.18,0.22-0.32,0.35-0.4c0-0.01,0.01-0.01,0.01-0.01c0.22-0.12,0.42-0.23,0.49-0.29l0.04-0.02l1.17-0.68
		c1.23-0.7,3.51-0.55,5.09,0.36l92.55,53.44c0.03,0.02,0.06,0.05,0.1,0.07l-65.39,37.75c-1.05,0.61-2.76,0.6-3.8-0.01l-93.16-54.3
		L256.94,270.83z"/>
	<g>
		<path id="XMLID_00000021089958986898951590000015399907472365508506_" class="st11" d="M303.13,352.03l-2.48-1.42
			c0,0,1.42-0.45,2.08-0.15C303.39,350.77,303.13,352.03,303.13,352.03z"/>
		<path id="XMLID_00000129905963578393588710000000169445305813831609_" class="st32" d="M303.13,352.03l-2.48-1.42
			c0,0,1.42-0.45,2.08-0.15C303.39,350.77,303.13,352.03,303.13,352.03z"/>
	</g>
	<g class="st33">
		<path id="XMLID_00000028295325043322901950000004507437542751878791_" class="st13" d="M304.83,350.47c0,0-2.01-2.21-4.41,0
			c-2.41,2.21-2.53,4.4-3.53,4.36c-1-0.04-0.98-17.65-0.98-17.65l9.49,8.83L304.83,350.47z"/>
		<path id="XMLID_00000093876526513992986590000004338346287463932073_" class="st34" d="M304.83,350.47c0,0-2.01-2.21-4.41,0
			c-2.41,2.21-2.53,4.4-3.53,4.36c-1-0.04-0.98-17.65-0.98-17.65l9.49,8.83L304.83,350.47z"/>
	</g>
	<g>
		<path id="XMLID_00000124164176098105354660000017316996593695417497_" class="st13" d="M205.41,286.42l-0.16-0.09l1.53-0.88
			l65.47-37.8l95.41,61.75c1.58,0.91,1.86,2.22,0.62,2.93l-2.23,1.28l-61.2,35.35l-0.43-0.32L205.41,286.42z"/>
		<path id="XMLID_00000031893868148642734230000008850072048368009636_" class="st35" d="M205.41,286.42l-0.16-0.09l1.53-0.88
			l65.47-37.8l95.41,61.75c1.58,0.91,1.86,2.22,0.62,2.93l-2.23,1.28l-61.2,35.35l-0.43-0.32L205.41,286.42z"/>
	</g>
	<path id="XMLID_00000158739588581241496730000001103742261421699252_" class="st36" d="M296.68,328.85l4.74-0.98v18.98
		c-2.86,1.21-4.68,2.36-4.98,4.75L296.68,328.85z"/>
	<path id="XMLID_00000029032094957128869130000015890792176626896559_" class="st22" d="M303.51,347.1l60.63-35
		c1.05-0.61,1.9-2.08,1.9-3.3v-18.71l-61.21,35.65c0,0-0.73,2.65-2.9,3.48c-2.17,0.84-0.52,1.67-0.52,1.67v15.95
		C303.29,346.63,303.51,347.1,303.51,347.1z"/>
	<g>
		<path id="XMLID_00000140703492533998880790000010822107339106022846_" class="st21" d="M297.92,328.2
			c0.63-0.36,1.12-0.39,1.12-0.04v0.59c0,0.66,1,0.63,2.24-0.09c1.23-0.71,2.25-1.82,2.25-2.48v-0.6c0-0.34,0.84-1.1,1.89-1.7
			l-98.65-56.52c-0.6,0.35-1.53,0.89-1.53,0.89c-0.26,0.25-0.38,0.67-0.38,0.82v0.59c0,0.66-1,1.77-2.23,2.49
			c-1.24,0.71-2.24,0.75-2.24,0.09v-0.59c0-0.34-0.49-0.32-1.12,0.04L297.92,328.2z"/>
		<path id="XMLID_00000040540293258130318750000005306903913457848712_" class="st24" d="M297.92,328.2
			c0.63-0.36,1.12-0.39,1.12-0.04v0.59c0,0.66,1,0.63,2.24-0.09c1.23-0.71,2.25-1.82,2.25-2.48v-0.6c0-0.34,0.84-1.1,1.89-1.7
			l-98.65-56.52c-0.6,0.35-1.53,0.89-1.53,0.89c-0.26,0.25-0.38,0.67-0.38,0.82v0.59c0,0.66-1,1.77-2.23,2.49
			c-1.24,0.71-2.24,0.75-2.24,0.09v-0.59c0-0.34-0.49-0.32-1.12,0.04L297.92,328.2z"/>
	</g>
	<path id="XMLID_00000173869381482752865960000003128462252507585212_" class="st11" d="M205.41,268.33l-0.16-0.09l1.53-0.88
		l65.47-37.8l95.41,55.09c1.58,0.91,1.86,2.22,0.62,2.93l-2.23,1.28l-61.21,36.87L205.41,268.33z"/>
	<path id="XMLID_00000097489335430623121100000011283266408640220554_" class="st13" d="M205.41,268.33l-0.16-0.09l1.53-0.88
		l65.47-37.8l95.41,55.09c1.58,0.91,1.86,2.22,0.62,2.93l-2.23,1.28l-61.21,36.87L205.41,268.33z"/>
	<g>
		<path id="XMLID_00000004529075785610486400000010015156900030131851_" class="st13" d="M200.38,271.06l98.57,56.91l-3.45,2.7
			l-98.25-56.72c0.43-1.01,0.87-1.54,1.31-1.83L200.38,271.06z"/>
		<path id="XMLID_00000163054784342124583030000002253109196956452737_" class="st35" d="M200.38,271.06l98.57,56.91l-3.45,2.7
			l-98.25-56.72c0.43-1.01,0.87-1.54,1.31-1.83L200.38,271.06z"/>
	</g>
	<g id="XMLID_00000088813888868255819500000004583676251897576333_" class="st15">
		<g>
			<path id="XMLID_00000084510133969094582220000013544022014090425535_" class="st26" d="M197.63,298.43
				c-0.06-0.04-0.12-0.08-0.18-0.13c-0.04-0.02-0.08-0.05-0.11-0.1c-0.08-0.08-0.14-0.16-0.2-0.26c-0.04-0.04-0.07-0.09-0.1-0.14
				c-0.1-0.16-0.19-0.35-0.25-0.55c-0.08-0.2-0.14-0.42-0.2-0.64c-0.06-0.24-0.1-0.48-0.14-0.75c-0.03-0.14-0.04-0.3-0.06-0.45
				c-0.01-0.12-0.02-0.23-0.03-0.36c-0.02-0.27-0.03-0.56-0.03-0.86V277.9c0-1.82,0.36-3.64,0.91-4.96l98.25,56.73l0.41,25.51
				l-98.25-56.73L197.63,298.43z"/>
			<path id="XMLID_00000160163713008248954320000002994856760802152606_" class="st37" d="M197.63,298.43
				c-0.06-0.04-0.12-0.08-0.18-0.13c-0.04-0.02-0.08-0.05-0.11-0.1c-0.08-0.08-0.14-0.16-0.2-0.26c-0.04-0.04-0.07-0.09-0.1-0.14
				c-0.1-0.16-0.19-0.35-0.25-0.55c-0.08-0.2-0.14-0.42-0.2-0.64c-0.06-0.24-0.1-0.48-0.14-0.75c-0.03-0.14-0.04-0.3-0.06-0.45
				c-0.01-0.12-0.02-0.23-0.03-0.36c-0.02-0.27-0.03-0.56-0.03-0.86V277.9c0-1.82,0.36-3.64,0.91-4.96l98.25,56.73l0.41,25.51
				l-98.25-56.73L197.63,298.43z"/>
		</g>
		<path id="XMLID_00000108268664235052559930000002768044229325900223_" class="st38" d="M295.5,329.66L295.5,329.66
			c0,0-77.38-36.21-84.42-39.53c-4.65-2.19-6.93,2.41-5.83,7.17c0.96,4.16,5.07,8.45,5.07,8.45l0,0l-12.65-7.31l-0.03-0.02
			c-0.06-0.04-0.12-0.08-0.18-0.13c-0.04-0.02-0.08-0.05-0.11-0.1c-0.08-0.08-0.14-0.16-0.2-0.26c-0.04-0.04-0.07-0.09-0.1-0.14
			c-0.1-0.16-0.19-0.35-0.25-0.55c-0.08-0.2-0.14-0.42-0.2-0.64c-0.06-0.24-0.1-0.48-0.14-0.75c-0.03-0.14-0.04-0.3-0.06-0.45
			c-0.01-0.12-0.02-0.23-0.03-0.36c-0.02-0.27-0.03-0.56-0.03-0.86V277.9c0-1.82,0.36-3.64,0.91-4.96L295.5,329.66z"/>
	</g>
	<g class="st15">
		<g id="XMLID_00000104679749475290870340000001634422373538258861_">
			<g>
				<g id="XMLID_00000127044783979406408310000012839514134150856639_">
					<path id="XMLID_00000052799846646317752110000015305066475918766477_" class="st18" d="M294.59,335.63h2.2
						c0-2.35,0.69-4.3,1.07-4.81c0.48,0.37,1.1,0.59,1.8,0.59c1.03,0,2.06-0.46,2.74-0.86c0.89-0.52,1.88-1.31,2.54-2.23
						c0.04-0.07,0.1-0.13,0.13-0.2c0.4-0.58,0.64-1.23,0.66-1.88l58.07-33.53l1.97-1.14l2.52-1.45c0.52-0.3,0.77-0.7,0.77-1.13
						v-2.57c0,0.51-0.3,0.88-0.77,1.17l-0.03,0.02l-6.66,3.84l-56.16,32.43c-1.04,0.6-1.9,1.36-1.9,1.7v0.59
						c0,0.29-0.19,0.66-0.52,1.04c-0.4,0.51-1.02,1.03-1.72,1.44c-1.24,0.71-2.24,0.75-2.24,0.09v-0.59c0-0.34-0.49-0.32-1.12,0.04
						l-1.11,0.65C295.59,329.55,294.59,332.6,294.59,335.63z"/>
				</g>
				<g id="XMLID_00000039100660381173545420000006234873346115618994_">
					<path id="XMLID_00000083772622698802794680000002149590255808497074_" class="st18" d="M296.79,335.63v16.28
						c0,0.23,0.01,0.46,0.02,0.68l0.05,0.55c0,0.02,0,0.03,0.01,0.05c0.2-1.75,1.87-3.31,3.32-4.13c0.65-0.38,1.65-0.84,2.68-0.84
						c0.77,0,1.46,0.27,1.97,0.73l0.2-0.11c0.13-0.08,0.25-0.15,0.38-0.23l56.16-32.43c0,0,1.47-0.85,3.22-1.86
						c0.3-0.18,0.62-0.35,0.92-0.54c0.95-0.55,1.9-1.1,2.72-1.57c0.37-0.27,0.6-0.62,0.6-1.06v0.7v1.87c0,0.36-0.19,0.71-0.56,0.99
						c0,0.01-0.01,0.01-0.02,0.02c-0.32,0.19-0.66,0.37-1,0.58c-0.21,0.12-0.42,0.24-0.63,0.36c-0.37,0.21-0.74,0.43-1.08,0.63
						c-0.24,0.14-0.46,0.28-0.67,0.38c-0.18,0.1-0.33,0.2-0.47,0.27c-0.51,0.3-0.82,0.48-0.82,0.48l-44.61,25.74l-14.24,8.22
						c-1.01,0.59-1.84,0.8-1.89,0.49c-0.01-0.04-0.01-0.09-0.01-0.11v-0.58c0-0.71-1-0.71-2.23,0c-1.21,0.69-1.74,1.55-1.76,2.24
						v0.7c0,0.36-0.14,0.74-0.33,0.84c-0.09,0.06-0.21,0.12-0.33,0.19c-0.2,0.11-0.44,0.25-0.7,0.41c-0.26,0.15-0.56,0.33-0.87,0.51
						c-0.41,0.23-0.78,0.19-1.11-0.1c-0.04-0.02-0.08-0.05-0.11-0.1c-0.08-0.08-0.14-0.16-0.2-0.26v-0.01
						c-0.04-0.04-0.07-0.08-0.1-0.13c-0.1-0.17-0.19-0.35-0.25-0.55c-0.08-0.2-0.14-0.42-0.2-0.64c-0.05-0.24-0.1-0.48-0.14-0.75
						c-0.03-0.14-0.04-0.3-0.05-0.45c-0.01-0.12-0.02-0.23-0.03-0.36c-0.02-0.27-0.03-0.56-0.03-0.86v-16.28H296.79z"/>
				</g>
			</g>
		</g>
		<g id="XMLID_00000110459334557657587150000010599376546726289577_" class="st23">
			<g id="XMLID_00000075866327436235494680000018296876701873874835_">
				<path id="XMLID_00000098921124935832905120000010724049038754174338_" class="st18" d="M294.59,335.63h2.2
					c0-2.35,0.69-4.3,1.07-4.81c0.48,0.37,1.1,0.59,1.8,0.59c1.03,0,2.06-0.46,2.74-0.86c0.89-0.52,1.88-1.31,2.54-2.23
					c0.04-0.07,0.1-0.13,0.13-0.2c0.4-0.58,0.64-1.23,0.66-1.88l58.07-33.53l1.97-1.14l2.52-1.45c0.52-0.3,0.77-0.7,0.77-1.13v-2.57
					c0,0.51-0.3,0.88-0.77,1.17l-0.03,0.02l-6.66,3.84l-56.16,32.43c-1.04,0.6-1.9,1.36-1.9,1.7v0.59c0,0.29-0.19,0.66-0.52,1.04
					c-0.4,0.51-1.02,1.03-1.72,1.44c-1.24,0.71-2.24,0.75-2.24,0.09v-0.59c0-0.34-0.49-0.32-1.12,0.04l-1.11,0.65
					C295.59,329.55,294.59,332.6,294.59,335.63z"/>
			</g>
			<g id="XMLID_00000027600902307880052790000015124417755453940396_">
				<path id="XMLID_00000106106746340118380070000003281806196325468559_" class="st18" d="M296.79,335.63v16.28
					c0,0.23,0.01,0.46,0.02,0.68l0.05,0.55c0,0.02,0,0.03,0.01,0.05c0.2-1.75,1.87-3.31,3.32-4.13c0.65-0.38,1.65-0.84,2.68-0.84
					c0.77,0,1.46,0.27,1.97,0.73l0.2-0.11c0.13-0.08,0.25-0.15,0.38-0.23l56.16-32.43c0,0,1.47-0.85,3.22-1.86
					c0.3-0.18,0.62-0.35,0.92-0.54c0.95-0.55,1.9-1.1,2.72-1.57c0.37-0.27,0.6-0.62,0.6-1.06v0.7v1.87c0,0.36-0.19,0.71-0.56,0.99
					c0,0.01-0.01,0.01-0.02,0.02c-0.32,0.19-0.66,0.37-1,0.58c-0.21,0.12-0.42,0.24-0.63,0.36c-0.37,0.21-0.74,0.43-1.08,0.63
					c-0.24,0.14-0.46,0.28-0.67,0.38c-0.18,0.1-0.33,0.2-0.47,0.27c-0.51,0.3-0.82,0.48-0.82,0.48l-44.61,25.74l-14.24,8.22
					c-1.01,0.59-1.84,0.8-1.89,0.49c-0.01-0.04-0.01-0.09-0.01-0.11v-0.58c0-0.71-1-0.71-2.23,0c-1.21,0.69-1.74,1.55-1.76,2.24v0.7
					c0,0.36-0.14,0.74-0.33,0.84c-0.09,0.06-0.21,0.12-0.33,0.19c-0.2,0.11-0.44,0.25-0.7,0.41c-0.26,0.15-0.56,0.33-0.87,0.51
					c-0.41,0.23-0.78,0.19-1.11-0.1c-0.04-0.02-0.08-0.05-0.11-0.1c-0.08-0.08-0.14-0.16-0.2-0.26v-0.01
					c-0.04-0.04-0.07-0.08-0.1-0.13c-0.1-0.17-0.19-0.35-0.25-0.55c-0.08-0.2-0.14-0.42-0.2-0.64c-0.05-0.24-0.1-0.48-0.14-0.75
					c-0.03-0.14-0.04-0.3-0.05-0.45c-0.01-0.12-0.02-0.23-0.03-0.36c-0.02-0.27-0.03-0.56-0.03-0.86v-16.28H296.79z"/>
			</g>
		</g>
	</g>
	<path id="XMLID_00000124139126521211797450000005705756290871584928_" class="st13" d="M197.25,273.93l93.38,53.91l70.58-40.75
		c1.06-0.6,1.06-1.59,0-2.2l-92.4-53.35l-62.03,35.81h-0.01c-0.6,0.35-1.53,0.89-1.53,0.89c-0.25,0.24-0.37,0.67-0.37,0.81v0.59
		c0,0.66-1,1.77-2.23,2.48c-0.07,0.04-0.13,0.07-0.2,0.1l-2.06-1.19l-0.98,0.56c-0.04,0.02-0.08,0.03-0.13,0.07l0.01,0.01
		l-0.73,0.42C198.12,272.39,197.67,272.93,197.25,273.93z"/>
	<path id="XMLID_17674_" class="st10" d="M378.95,287.5l-2.81-1.5l2.56-0.61C379.23,285.98,379.26,286.7,378.95,287.5z"/>
	<path id="XMLID_17664_" class="st39" d="M378.95,287.5l-2.81-1.5l2.56-0.61C379.23,285.98,379.26,286.7,378.95,287.5z"/>
	<g id="XMLID_00000040551345603464064120000000837789303433924492_">
		<path id="XMLID_00000019639655326241687170000004253375342749003699_" class="st13" d="M281.53,324.99c1.58,0.91,4.14,0.91,5.71,0
			l64.14-37.03l-96.02-60.7l-2.24-1.3l-64.14,42.29c-1.57,0.91-1.57,2.4,0,3.3L281.53,324.99z"/>
		<g>
			<path id="XMLID_00000072988122889756422410000007082794247646531209_" class="st13" d="M305.61,249.77l48.46,32.84l-26.09-19.97
				l14.48-8.36l16.84,9.73c0,0,0,15.92,0,17.4c0,1.47-1.65,3.57-2.25,3.22c0,0-1.32,0.27-3.22,1.14c-1.9,0.87-4.65,3.44-4.65,3.44
				l-51.4-34.93L305.61,249.77z"/>
			<path id="XMLID_00000161619300728236310210000017673933430227554703_" class="st40" d="M305.61,249.77l48.46,32.84l-26.09-19.97
				l14.48-8.36l16.84,9.73c0,0,0,15.92,0,17.4c0,1.47-1.65,3.57-2.25,3.22c0,0-1.32,0.27-3.22,1.14c-1.9,0.87-4.65,3.44-4.65,3.44
				l-51.4-34.93L305.61,249.77z"/>
		</g>
	</g>
	<path id="XMLID_00000042013479438972603330000016699682855908019342_" class="st21" d="M284.38,303.29v20.08
		c0.69,0,1.39-0.14,1.9-0.45l7.04-4.06l53.59-30.94l0.01-20.74L284.38,303.29z"/>
	<path id="XMLID_00000036248051180047942830000000420575284209923472_" class="st22" d="M190.59,250.99v16.67
		c0,1.21,0.86,2.69,1.9,3.3l82.96,47.9l7.03,4.06c0.52,0.31,1.21,0.45,1.9,0.45v-18.51L190.59,250.99z"/>
	<path id="XMLID_17642_" class="st36" d="M369.92,287.92c0.02-0.73,0.33-1.44,0.8-2.08c0.66-0.92,1.65-1.72,2.54-2.23
		c0.68-0.4,1.7-0.86,2.74-0.86c0.7,0,1.32,0.05,1.8,0.43v-20.54l-7.87,4.55L369.92,287.92z"/>
	<path id="XMLID_17638_" class="st1" d="M373.06,283.73c-0.84,0.52-1.73,1.25-2.34,2.11c-0.47,0.64-0.78,1.35-0.8,2.08l0.01-20.01
		h3.13V283.73z"/>
	<g>
		<path id="XMLID_00000170989131193133954550000007651661376693173132_" class="st1" d="M255.37,209.16l96.02,55.44
			c0,0,0,0.57,0,1.29c0,0.71,1,0.98,2.23,0.26c1.24-0.71,2.24-1.61,2.24-2.84l0.12-1.22l-97.83-56.47l-0.4-0.23
			c-0.1,0.19-0.16,0.4-0.16,0.59v0.59C257.59,207.29,256.6,208.44,255.37,209.16z"/>
		<path id="XMLID_00000085218703415201238490000002089563931761257918_" class="st41" d="M255.37,209.16l96.02,55.44
			c0,0,0,0.57,0,1.29c0,0.71,1,0.98,2.23,0.26c1.24-0.71,2.24-1.61,2.24-2.84l0.12-1.22l-97.83-56.47l-0.4-0.23
			c-0.1,0.19-0.16,0.4-0.16,0.59v0.59C257.59,207.29,256.6,208.44,255.37,209.16z"/>
	</g>
	<path id="XMLID_00000147207772498962716230000007947023621865668225_" class="st13" d="M287.24,301.64l62.72-36.21
		c0.8-0.42,1.52-0.75,1.83-0.59l-0.41-0.23l-96.02-55.44c0,0-0.56-0.32-1.12-0.65c-0.62-0.36-1.97-0.16-3.03,0.45l-62.23,35.93
		c-1.57,0.91-1.57,2.4,0,3.3l92.54,53.44C283.11,302.55,285.66,302.55,287.24,301.64z"/>
	<path id="XMLID_00000121265884964709911440000018081421085835785351_" class="st13" d="M257.75,205.39l0.4,0.23l97.83,56.47
		c0,0,0.07-0.15,0.21-0.26c0.09-0.05,0.2-0.11,0.33-0.19l0.7-0.41c0.26-0.15,0.56-0.33,0.87-0.51c0.41-0.23,0.78-0.19,1.11,0.1
		c0.04,0.02,0.08,0.05,0.11,0.1c0.11,0.11,0.21,0.25,0.3,0.41c0.1,0.16,0.19,0.35,0.25,0.55c0.08,0.2,0.14,0.42,0.2,0.64
		c0.05,0.24,0.1,0.48,0.14,0.75c0.03,0.14,0.04,0.3,0.06,0.45c0.01,0.12,0.02,0.23,0.03,0.36c0.02,0.27,0.03,0.56,0.03,0.86v-2.75
		c0-1.52-1.29-3.49-2.86-4.4l-92.55-53.44c-1.58-0.91-3.86-1.07-5.09-0.36l-1.17,0.68l-0.04,0.02c-0.08,0.06-0.27,0.17-0.49,0.29
		c0,0-0.01,0-0.01,0.01C257.97,205.07,257.84,205.22,257.75,205.39z"/>
	<g class="st15">
		<path id="XMLID_00000052805341626837972850000014902159597567602309_" class="st18" d="M287.24,324.98l3.87-2.24l58.07-33.53
			c0.02-0.73,0.32-1.44,0.79-2.08c0.66-0.92,1.65-1.72,2.54-2.23c0.68-0.4,1.7-0.86,2.74-0.86c0.7,0,1.32,0.22,1.8,0.59
			c0.37-0.51,1.07-2.45,1.07-4.81h2.2c0,3.03-1,6.08-2.23,6.78l-1.11,0.65c-0.63,0.36-1.12,0.38-1.12,0.04v-0.59
			c0-0.66-1-0.63-2.24,0.09c-1.23,0.71-2.23,1.83-2.23,2.49v0.59c0,0.34-0.86,1.1-1.9,1.7l-56.16,32.43l-6.08,3.51
			c0,0-0.01,0-0.01,0.01c-0.79,0.44-1.81,0.67-2.85,0.67v-2.54C285.42,325.66,286.45,325.44,287.24,324.98z"/>
		<path id="XMLID_00000179623191815009157180000003919207470036984734_" class="st5" d="M287.24,324.98l3.87-2.24l58.07-33.53
			c0.02-0.73,0.32-1.44,0.79-2.08c0.66-0.92,1.65-1.72,2.54-2.23c0.68-0.4,1.7-0.86,2.74-0.86c0.7,0,1.32,0.22,1.8,0.59
			c0.37-0.51,1.07-2.45,1.07-4.81h2.2c0,3.03-1,6.08-2.23,6.78l-1.11,0.65c-0.63,0.36-1.12,0.38-1.12,0.04v-0.59
			c0-0.66-1-0.63-2.24,0.09c-1.23,0.71-2.23,1.83-2.23,2.49v0.59c0,0.34-0.86,1.1-1.9,1.7l-56.16,32.43l-6.08,3.51
			c0,0-0.01,0-0.01,0.01c-0.79,0.44-1.81,0.67-2.85,0.67v-2.54C285.42,325.66,286.45,325.44,287.24,324.98z"/>
	</g>
	<g>
		<path id="XMLID_00000143618050152516433280000003430924697693315256_" class="st18" d="M287.22,301.65c0,0,0.01-0.01,0.02-0.01
			l3.87-2.24l44.61-25.74l14.24-8.23c1.01-0.59,1.84-0.8,1.89-0.49c0.01,0.01,0.01,0.02,0.01,0.03v0.65c0,0.71,1,0.71,2.23,0
			c1.21-0.69,1.74-1.55,1.76-2.24v-0.7c0-0.36,0.14-0.74,0.33-0.84c0.09-0.05,0.21-0.12,0.33-0.19c0.2-0.11,0.44-0.25,0.7-0.41
			c0.26-0.15,0.56-0.33,0.87-0.51c0.41-0.23,0.78-0.19,1.11,0.1c0.04,0.02,0.08,0.05,0.11,0.1c0.08,0.08,0.14,0.16,0.2,0.26
			c0.04,0.04,0.07,0.09,0.1,0.14c0.1,0.16,0.19,0.35,0.25,0.55c0.08,0.2,0.14,0.42,0.2,0.64c0.05,0.24,0.1,0.48,0.14,0.75
			c0.03,0.14,0.04,0.3,0.06,0.45c0.01,0.12,0.02,0.23,0.03,0.36c0.02,0.27,0.03,0.56,0.03,0.86v14.89h-2.2v-14.89
			c0-0.23-0.01-0.46-0.02-0.68l-0.05-0.55c0-0.02,0-0.03-0.01-0.05c-0.2,1.75-1.87,3.31-3.32,4.13c-0.65,0.38-1.65,0.84-2.68,0.84
			c-0.77,0-1.46-0.27-1.97-0.73l-0.2,0.11c-0.13,0.08-0.25,0.15-0.38,0.23l-56.16,32.43l-6.08,3.51c0,0-0.01,0-0.01,0.01
			c-0.01,0.01-0.02,0.01-0.04,0.02c-0.78,0.43-1.79,0.65-2.8,0.65v-2.54C285.52,302.32,286.42,302.07,287.22,301.65z"/>
		<path id="XMLID_00000101085323158846944620000013670098840808559798_" class="st5" d="M287.22,301.65c0,0,0.01-0.01,0.02-0.01
			l3.87-2.24l44.61-25.74l14.24-8.23c1.01-0.59,1.84-0.8,1.89-0.49c0.01,0.01,0.01,0.02,0.01,0.03v0.65c0,0.71,1,0.71,2.23,0
			c1.21-0.69,1.74-1.55,1.76-2.24v-0.7c0-0.36,0.14-0.74,0.33-0.84c0.09-0.05,0.21-0.12,0.33-0.19c0.2-0.11,0.44-0.25,0.7-0.41
			c0.26-0.15,0.56-0.33,0.87-0.51c0.41-0.23,0.78-0.19,1.11,0.1c0.04,0.02,0.08,0.05,0.11,0.1c0.08,0.08,0.14,0.16,0.2,0.26
			c0.04,0.04,0.07,0.09,0.1,0.14c0.1,0.16,0.19,0.35,0.25,0.55c0.08,0.2,0.14,0.42,0.2,0.64c0.05,0.24,0.1,0.48,0.14,0.75
			c0.03,0.14,0.04,0.3,0.06,0.45c0.01,0.12,0.02,0.23,0.03,0.36c0.02,0.27,0.03,0.56,0.03,0.86v14.89h-2.2v-14.89
			c0-0.23-0.01-0.46-0.02-0.68l-0.05-0.55c0-0.02,0-0.03-0.01-0.05c-0.2,1.75-1.87,3.31-3.32,4.13c-0.65,0.38-1.65,0.84-2.68,0.84
			c-0.77,0-1.46-0.27-1.97-0.73l-0.2,0.11c-0.13,0.08-0.25,0.15-0.38,0.23l-56.16,32.43l-6.08,3.51c0,0-0.01,0-0.01,0.01
			c-0.01,0.01-0.02,0.01-0.04,0.02c-0.78,0.43-1.79,0.65-2.8,0.65v-2.54C285.52,302.32,286.42,302.07,287.22,301.65z"/>
	</g>
	<path id="XMLID_17543_" class="st42" d="M310.22,301.65c0,0,0.01-0.01,0.02-0.01l3.87-2.24l44.61-25.74l14.24-8.23
		c1.01-0.59,1.84-0.8,1.89-0.49c0.01,0.01,0.01,0.02,0.01,0.03v0.65c0,0.71,1,0.71,2.23,0c1.21-0.69,1.74-1.55,1.76-2.24v-0.7
		c0-0.36,0.14-0.74,0.33-0.84c0.09-0.05,0.21-0.12,0.33-0.19c0.2-0.11,0.44-0.25,0.7-0.41c0.26-0.15,0.56-0.33,0.87-0.51
		c0.41-0.23,0.78-0.19,1.11,0.1c0.04,0.02,0.08,0.05,0.11,0.1c0.08,0.08,0.14,0.16,0.2,0.26c0.04,0.04,0.07,0.09,0.1,0.14
		c0.1,0.16,0.19,0.35,0.25,0.55c0.08,0.2,0.14,0.42,0.2,0.64c0.05,0.24,0.1,0.48,0.14,0.75c0.03,0.14,0.04,0.3,0.06,0.45
		c0.01,0.12,0.02,0.23,0.03,0.36c0.02,0.27,0.03,0.56,0.03,0.86v14.89h-2.2v-14.89c0-0.23-0.01-0.46-0.02-0.68l-0.05-0.55
		c0-0.02,0-0.03-0.01-0.05c-0.2,1.75-1.87,3.31-3.32,4.13c-0.65,0.38-1.65,0.84-2.68,0.84c-0.77,0-1.46-0.27-1.97-0.73l-0.2,0.11
		c-0.13,0.08-0.25,0.15-0.38,0.23l-56.16,32.43l-6.08,3.51c0,0-0.01,0-0.01,0.01c-0.01,0.01-0.02,0.01-0.04,0.02
		c-0.78,0.43-1.79,0.65-2.8,0.65v-2.54C308.52,302.32,309.42,302.07,310.22,301.65z"/>
	<g>
		<path id="XMLID_00000099653088706283053350000014560346124726706353_" class="st13" d="M187.81,246.52v2.58
			c0,0.59,0.37,1.18,1.13,1.63l0.04,0.02l86.47,49.92l6.07,3.51v0.01c0,0,0.01-0.01,0.01,0c0.79,0.44,1.81,0.67,2.85,0.67v-2.54
			c-1.03,0-2.07-0.22-2.86-0.68l-3.86-2.23h-0.01l-88.67-51.21C188.14,247.71,187.81,247.14,187.81,246.52z"/>
		<path id="XMLID_00000103984658406242351340000001937767615779985847_" class="st40" d="M187.81,246.52v2.58
			c0,0.59,0.37,1.18,1.13,1.63l0.04,0.02l86.47,49.92l6.07,3.51v0.01c0,0,0.01-0.01,0.01,0c0.79,0.44,1.81,0.67,2.85,0.67v-2.54
			c-1.03,0-2.07-0.22-2.86-0.68l-3.86-2.23h-0.01l-88.67-51.21C188.14,247.71,187.81,247.14,187.81,246.52z"/>
	</g>
	<g class="st15">
		<path id="XMLID_00000150808838003817682430000009709954314777268394_" class="st18" d="M187.81,269.86v2.58
			c0,0.59,0.37,1.18,1.13,1.63l0.04,0.02l86.47,49.92l6.07,3.51v0.01c0,0,0.01-0.01,0.01,0c0.79,0.44,1.81,0.67,2.85,0.67v-2.54
			c-1.03,0-2.07-0.22-2.86-0.68l-3.86-2.23h-0.01l-88.67-51.21C188.14,271.05,187.81,270.48,187.81,269.86z"/>
		<path id="XMLID_00000069383641875850205730000015091629083185424562_" class="st43" d="M187.81,269.86v2.58
			c0,0.59,0.37,1.18,1.13,1.63l0.04,0.02l86.47,49.92l6.07,3.51v0.01c0,0,0.01-0.01,0.01,0c0.79,0.44,1.81,0.67,2.85,0.67v-2.54
			c-1.03,0-2.07-0.22-2.86-0.68l-3.86-2.23h-0.01l-88.67-51.21C188.14,271.05,187.81,270.48,187.81,269.86z"/>
	</g>
	<polygon id="XMLID_00000078762812269332604150000013291001232796500362_" class="st44" points="227.75,179.13 218.57,195.49 
		231.95,202.61 241.69,188.11 	"/>
	<path id="XMLID_00000059288205799980668250000016404791077879456420_" class="st21" d="M260.32,142.28
		c-5.1-0.87-12.83-1.1-17.85,7.51c-5.02,8.61-15.84,29.86-15.84,29.86s6.32,8.18,15.47,9.67l14.95-23.72L260.32,142.28z"/>
	
		<rect id="XMLID_00000052064267333476702810000006054195863444725376_" x="236.85" y="342.64" class="st44" width="11.42" height="19.55"/>
	<polygon id="XMLID_00000170237452968668827700000000542835604432477059_" class="st44" points="215.2,337.88 203.79,338.27 
		203.22,317.58 214.63,317.19 	"/>
	<path id="XMLID_00000124138007491150143360000009592180462857765562_" class="st9" d="M236.85,356.55v-1.63
		c-1.09,0.48-3.63,10.16-8.16,14.29c-3.6,3.29-8.52,7.08-9.77,10.74c-1.3,3.81,6.84,5.91,10.21,5.32c3.91-0.69,10.69-3.45,12.39-6
		c1.7-2.55,2.5-6.32,3.88-8.19c1.38-1.87,4.57-3.96,5.32-6.12c0.41-1.19-0.08-3.79-0.65-5.99c-0.53-2.02-1.1-4.24-1.79-4.05
		c0,0.25,0,1.24,0,1.24c-0.83,0.92-3.12,1.83-5.71,1.93C240.89,358.16,236.84,357.83,236.85,356.55z"/>
	<path id="XMLID_00000021797518090470839120000016987869577881183910_" class="st9" d="M203.67,334.75
		c-0.59,0.02-1.08,0.86-2.38,2.27c-1.58,1.71-4.17,3.56-6.72,4.83c-4.28,2.14-12.59,5.43-16.35,7.13c-2.35,1.06-2.24,3.9,0.19,5.51
		c2.43,1.62,8.3,2.78,15.34,1.2c3.84-0.86,8.83-4.4,11.99-4.21c3.16,0.19,9.08,0.15,11.41-1.46c2.33-1.61,1.4-5.04,0.74-8
		c-0.72-3.22-1.75-8.15-2.82-7.93l0.03,1.01c-1.37,2.08-8.36,2.93-11.38,1.4L203.67,334.75z"/>
	<path id="XMLID_00000085250212985345132450000015527393855159111325_" d="M294.27,223.75c2.5,17.65-0.87,21.03-17.64,37.94
		c-9.02,9.09-23.55,22.42-23.55,22.42s0.21,5.63,0.33,18.27c0.1,11.13-4.55,47.35-4.55,47.35s-7.58,3.19-12.78-0.12
		c0,0-2.35-26.95-3.62-40.99c-1.72-19.04-2.62-28.58-1.65-32.68c0.86-3.61,17.93-25.16,21.87-31.21l-36.28,21.07
		c0,0,1.24,9.23,1.06,16.11c-0.4,15.11-2.25,45.29-2.25,45.29s-8.31,3.72-12.43,0.51c0,0-10.45-66-10.45-71.42
		c0-8.23,35.75-32.8,42.51-38.52c3.86-3.27,8.17-6.75,8.17-6.75L294.27,223.75z"/>
	<path id="XMLID_00000013902106303985960640000016274292004316329100_" class="st7" d="M252.68,244.75c0,0-5.82-4.3-8.29-11.82
		c0,0,0.31,5.07,1.29,8.99c0.98,3.92-29.28,23.9-29.28,23.9L252.68,244.75z"/>
	
		<ellipse id="XMLID_00000093886101976009035080000003028564369773042085_" transform="matrix(0.2282 -0.9736 0.9736 0.2282 94.2148 332.8726)" cx="257.06" cy="107.01" rx="16.21" ry="16.21"/>
	<path id="XMLID_00000167397115686461125880000006352475819583221692_" class="st21" d="M291.12,152.1c0,0,4.01,3.28,4.01,13.64
		v22.37l-0.57,37.62c-8.01,8.71-44.03,5.41-52.91-13.59c0,0,0.07-39.72,0.07-48.61c0-8.89,4.96-20.46,18.6-21.25l17.62,4.1
		L291.12,152.1z"/>
	<g id="XMLID_00000181053405219722698980000014662547451350184876_">
		<g id="XMLID_00000029739256524430515360000008044609356326205084_">
			<path id="XMLID_00000080179193947678909170000013254829649110614658_" d="M285.08,118.54c0,0-2.63,12.34-3.68,14.37
				c-1.05,2.03-3.23,2.6-3.23,2.6l0.18-8.68L285.08,118.54z"/>
			<path id="XMLID_00000057831198969358314670000004328265882672912269_" d="M281.78,100.86c0,0,2.83-0.49,5.04,1.77
				c2.16,2.21,0.95,9.13-1.74,15.91l-4.95,0.57L281.78,100.86z"/>
			<path id="XMLID_00000101074572362213857610000012928910665353785235_" class="st44" d="M278.65,119.11
				c0.99,0.59,2.41-1.31,3.63-2.59c1.22-1.28,5.22-3.03,7.21,1.17c2.03,4.28-1.76,9.93-4.9,10.92c-5.42,1.7-6.23-1.78-6.23-1.78
				l-0.41,19.55c-4.67,5.22-20.64,3.97-17.63-0.52l0.02-5.95c0,0-4.91,0.75-7.31,0.37c-3.99-0.62-6.49-3.76-7.7-8.08
				c-1.94-6.93-2.68-12.52-1.03-26.15c1.81-14.94,19.18-15.09,28.56-9.19C282.23,102.78,278.65,119.11,278.65,119.11z"/>
			<g id="XMLID_00000046330223881656514460000018294403176760310406_">
				<g id="XMLID_00000163061038672716464700000002628111063593482653_">
					<path class="st9" d="M264.84,122.53h-0.85c-3.05,0-5.53-2.48-5.53-5.53c0-3.05,2.48-5.53,5.53-5.53h0.85
						c3.05,0,5.53,2.48,5.53,5.53C270.37,120.05,267.89,122.53,264.84,122.53z M263.99,112.4c-2.53,0-4.6,2.06-4.6,4.6
						c0,2.54,2.06,4.6,4.6,4.6h0.85c2.54,0,4.6-2.06,4.6-4.6c0-2.53-2.06-4.6-4.6-4.6H263.99z"/>
				</g>
				<g id="XMLID_00000015334875747229610250000005943137968253876875_">
					<path class="st9" d="M247.98,122.53h-0.85c-3.05,0-5.53-2.48-5.53-5.53c0-3.05,2.48-5.53,5.53-5.53h0.85
						c3.05,0,5.53,2.48,5.53,5.53C253.51,120.05,251.03,122.53,247.98,122.53z M247.13,112.4c-2.53,0-4.6,2.06-4.6,4.6
						c0,2.54,2.06,4.6,4.6,4.6h0.85c2.54,0,4.6-2.06,4.6-4.6c0-2.53-2.06-4.6-4.6-4.6H247.13z"/>
				</g>
				<g id="XMLID_00000010277746168525925740000002578714569987212196_">
					<path class="st9" d="M258.53,115.91c-0.51-0.84-1.66-1.42-2.92-1.49c-1.09-0.06-2.05,0.3-2.55,0.96l-0.74-0.56
						c0.7-0.92,1.91-1.4,3.34-1.33c1.59,0.08,2.99,0.82,3.67,1.93L258.53,115.91z"/>
				</g>
				<g id="XMLID_00000026865787626405690900000010248708995673284286_">
					<rect x="269.86" y="115.87" class="st9" width="11.76" height="0.93"/>
				</g>
			</g>
			<path id="XMLID_00000108302560331207896410000007162623027221187515_" d="M278.65,120.78c0.5,0.01,2.4-3.14,3.63-4.26
				c1.71-1.56-0.5-15.66-0.5-15.66s1.64-3.51-1.65-7.13c-2.34-2.58-6.26-2.87-12.95-3.92c-3.51-0.55-8.83-1.53-12.34-2.19
				c-4.19-0.78-7.65-1.6-10.61,0.97c-2.3,2-3.29,5.53-2.05,8.31c0.29,0.65,0.71,1.24,1.19,1.77c0.85,0.94,1.81,1.68,3.01,2.07
				c0,0,1.83,1.62,8.17,2.39c6.35,0.77,16.24-0.15,17.59-0.33c1.84-0.25,2.23,1.53,3.23,6.41
				C276.25,113.5,276.97,120.75,278.65,120.78z"/>
			<path id="XMLID_00000029758941727490354700000001786626104509928593_" d="M281.77,101.96l6-3.22c-0.85-1.72-2.88-2.39-4.54-1.5
				C281.58,98.12,280.92,100.24,281.77,101.96z"/>
			<path id="XMLID_00000070106013780932476040000003420970261486533537_" class="st45" d="M260.32,139.91c0,0,8.9-1.79,12.01-3.45
				c2.08-1.11,3.8-3.02,4.3-4.25c0,0-0.58,2.64-2.44,5.02c-2.27,2.91-13.86,5.05-13.86,5.05L260.32,139.91z"/>
		</g>
		<g id="XMLID_00000034062096622855981470000010150932378428765824_">
			<path id="XMLID_00000000215573253543251460000006155804683654642329_" class="st9" d="M262.46,116.89c0,1.02,0.8,1.85,1.78,1.85
				c0.98,0,1.78-0.83,1.78-1.86c0-1.02-0.8-1.85-1.78-1.85C263.26,115.03,262.46,115.86,262.46,116.89z"/>
			<path id="XMLID_00000097468485392343627300000012162390798852591495_" class="st9" d="M265.32,109.51l3.81,2.11
				c0.56-1.1,0.16-2.46-0.89-3.04C267.2,107.99,265.89,108.41,265.32,109.51z"/>
			<path id="XMLID_00000129200456715192902100000008868855028988806067_" class="st45" d="M261.13,129.2l-4.07,1.53
				c0.4,1.17,1.64,1.77,2.76,1.35C260.95,131.66,261.53,130.37,261.13,129.2z"/>
			<path id="XMLID_00000005250578586200752660000016743653082857002129_" class="st9" d="M246.1,111.07l3.48-2.68
				c-0.71-1-2.06-1.2-3.02-0.46C245.6,108.67,245.39,110.08,246.1,111.07z"/>
			<path id="XMLID_00000009578455530363577720000011630453455005107098_" class="st9" d="M247.63,116.38c0,1.02,0.8,1.85,1.78,1.85
				c0.98,0,1.78-0.83,1.78-1.86c0-1.02-0.8-1.85-1.78-1.85C248.43,114.53,247.63,115.36,247.63,116.38z"/>
			<polygon id="XMLID_00000003075932423253728420000005323007266102985115_" class="st45" points="256.44,114.95 256.24,125.76 
				249.84,124.35 			"/>
		</g>
	</g>
	<path id="XMLID_00000070077742324217468790000018104684447128965781_" class="st46" d="M245.52,204.82v1.03
		c0,1.04-0.56,2-1.45,2.52l-27.77,15.98c-0.45,0.26-0.95,0.39-1.46,0.39c-0.5,0-1-0.13-1.45-0.39l-50.95-29.41
		c-0.9-0.52-1.46-1.48-1.46-2.52v-0.71l53.86,31.09L245.52,204.82z"/>
	<path id="XMLID_00000008139675500733789660000000227691007399153041_" class="st47" d="M245.52,204.82v1.03
		c0,1.04-0.56,2-1.45,2.52l-27.77,15.98c-0.45,0.26-0.95,0.39-1.46,0.39c-0.5,0-1-0.13-1.45-0.39l-50.95-29.41
		c-0.9-0.52-1.46-1.48-1.46-2.52v-0.71l53.86,31.09L245.52,204.82z"/>
	<path id="XMLID_00000050664282537524258620000006222564704446750354_" class="st48" d="M160.97,191.71l30.21-17.44
		c0.54-0.31,1.2-0.31,1.74,0l52.41,30.26c0.26,0.15,0.26,0.52,0,0.67l-30.49,17.61L160.97,191.71z"/>
	<path id="XMLID_00000159432631629804958730000014141890988894227846_" class="st28" d="M161.97,191.71l30.21-17.44
		c0.54-0.31,1.2-0.31,1.74,0l52.41,30.26c0.26,0.15,0.26,0.52,0,0.67l-30.49,17.61L161.97,191.71z"/>
	<polygon id="XMLID_00000165232480908116740300000011516098926502854581_" class="st9" points="215.11,220.24 231.4,210.84 
		183.76,183.34 167.38,192.69 	"/>
	<polygon id="XMLID_00000157295870825902023670000018323398077916696731_" class="st9" points="223.12,194.1 222.82,194.27 
		214.83,198.88 200.63,190.68 200.34,190.51 208.62,185.73 	"/>
	<polygon id="XMLID_00000049222178192462704770000000282344787733284754_" class="st9" points="222.82,194.27 214.83,198.88 
		200.63,190.68 208.62,186.07 	"/>
	<path id="XMLID_00000142876965819938373730000003703223362640962721_" class="st32" d="M214.83,222.8v1.94c-0.5,0-1-0.13-1.45-0.39
		l-50.95-29.41c-0.9-0.52-1.46-1.48-1.46-2.52v-0.71L214.83,222.8z"/>
	<path id="XMLID_00000157293047425148552700000007980045301097316490_" class="st49" d="M214.01,223.23
		c-0.96,0.37-2.06,0.3-2.97-0.23l-50.72-29.28c-0.89-0.52-1.5-1.4-1.68-2.41l-5.55-33.11c-0.03-0.19-0.05-0.38-0.05-0.57
		c0-0.92,0.37-1.81,1.02-2.45l52.71,30.44c0.66,0.38,1.11,1.04,1.24,1.78L214.01,223.23z"/>
	<path id="XMLID_00000119811022171827022450000009697969934399360942_" class="st28" d="M214.01,223.23
		c-0.96,0.37-2.06,0.3-2.97-0.23l-50.72-29.28c-0.89-0.52-1.5-1.4-1.68-2.41l-5.55-33.11c-0.03-0.19-0.05-0.38-0.05-0.57
		c0-0.92,0.37-1.81,1.02-2.45l52.71,30.44c0.66,0.38,1.11,1.04,1.24,1.78L214.01,223.23z"/>
	<path id="XMLID_00000129915317300547967300000011921037073442711453_" class="st10" d="M214.83,222.8l-0.35,0.2
		c-0.15,0.09-0.31,0.16-0.47,0.23l-6-35.84c-0.13-0.75-0.58-1.4-1.24-1.78l-52.71-30.44c0.2-0.2,0.44-0.38,0.7-0.54l52.82,30.49
		c0.66,0.38,1.11,1.04,1.24,1.78L214.83,222.8z"/>
	<path id="XMLID_00000057142658377043641680000008702842403037253042_" class="st13" d="M185.44,192.66
		c-0.37-2.22-2.66-5.16-5.11-6.58c-2.45-1.42-4.14-0.77-3.77,1.45c0.37,2.22,2.66,5.16,5.11,6.58
		C184.13,195.53,185.82,194.88,185.44,192.66z"/>
	<path id="XMLID_00000119099556479839338320000011838675257745620898_" class="st44" d="M195.83,214.22c0-0.04-0.09-1.82-0.85-4.25
		c-0.78-2.45-3.1-11.89-8.4-13.31c-0.63-0.17-1.3-0.23-1.94-0.06c-1.47,0.4-2.14,1.93-2.43,3.3c-0.42,2.01-0.15,4.08-0.03,6.1
		c-0.81-0.93-1.77-1.73-2.82-2.37c-1-0.61-2.04-1.24-3.25-1.16c-0.33,0.02-0.69,0.11-0.85,0.4c-0.19,0.36,0.04,0.79,0.3,1.1
		c0.53,0.64,1.18,1.18,1.7,1.82c0.44,0.54,0.79,1.15,1.15,1.74c0.67,1.08,1.42,2.1,2.17,3.12c1.53,2.09,3.17,4.08,5.34,5.52
		c1.34,0.89,4.54,2.76,8,3.19c3.87,0.48,7.63,0.43,10.07-0.43L195.83,214.22z"/>
	<g id="XMLID_00000145048025141009930700000002905639508180549050_">
		<path id="XMLID_00000114784131620417236970000017112870684231692725_" class="st44" d="M290.06,152.39
			c-3.58-1.83-8.79,5.45-7.13,13.07c1.66,7.62,9.84,34.41,9.84,34.41s-36.95,3.31-40.09,3.69c-2.19,0.27-4.64-0.85-6.67-1.52
			c-2.77-0.92-5.55-1.56-8.27-2.56c-0.49-0.18-1-0.36-1.51-0.31c-0.52,0.05-1.05,0.41-1.11,0.92c-0.04,0.31,0.09,0.61,0.23,0.89
			c0.87,1.77,2.19,3.32,3.81,4.44c0.75,0.52,1.59,0.97,2.24,1.62c0.44,0.43,1.38,1.62,1.03,2.27l-14.69,8.45
			c0,0,3.39,2.94,15.62-0.49c8.45-2.37,12.86-4.57,12.86-4.57s43.55,1.81,51.41-0.58c2.78-0.84,3.79-2.81,1.91-11.78
			c-2.18-10.41-8.35-29.35-9.75-34.32C296.73,155.17,295.98,155.42,290.06,152.39z"/>
		<path id="XMLID_00000111875512104330689620000016338539389223815346_" class="st21" d="M288.22,150.84c0,0,5.89,1.66,8.43,4.98
			c2.45,3.2,12.38,35.67,12.38,35.67s-7.62,7.05-18.66,5.01c0,0-7.88-22.35-8.72-28.32C280.13,158.92,284.65,151.64,288.22,150.84z"
			/>
	</g>
	<g id="XMLID_00000036217193783372550590000013282886673209330088_">
		<path id="XMLID_00000018213568862243433470000009504388986549519783_" class="st13" d="M256.38,172.52
			c-0.47-2.5,1.09-3.84,3.49-3.01c2.4,0.84,4.73,3.54,5.21,6.04C265.55,178.05,256.85,175.02,256.38,172.52z"/>
		<path id="XMLID_00000059281694916397044430000012196796006411288227_" class="st13" d="M272.87,180.3l-7.1-4.51
			c0.36,1.92-2.23,1.65-4.56,0.84c-2.33-0.81-5.18-2.45-5.54-4.37l-6.18-0.08c-0.57-0.01-0.58,0.74-0.03,1.35
			c1.53,1.71,5.08,4.73,12.56,7.34c7.49,2.62,10.36,1.8,11.43,0.99C273.84,181.59,273.52,180.72,272.87,180.3z"/>
	</g>
</g>
</svg>
